<svg xmlns="http://www.w3.org/2000/svg" xmlns:xlink="http://www.w3.org/1999/xlink" viewBox="0 0 1920 1080"><defs><radialGradient id="radial-gradient" cx="1392.63" cy="808.45" r="98.69" fx="1392.63" fy="808.45" gradientUnits="userSpaceOnUse"><stop offset="0" stop-color="#d07e94"/><stop offset=".15" stop-color="#db8ca1"/><stop offset=".42" stop-color="#ea9eb3"/><stop offset=".7" stop-color="#f3aabe"/><stop offset="1" stop-color="#f7aec2"/></radialGradient><radialGradient xlink:href="#radial-gradient" id="radial-gradient-2" cx="1392.63" cy="808.4" r="98.69" fx="1392.63" fy="808.4"/><radialGradient xlink:href="#radial-gradient" id="radial-gradient-3" cx="1392.63" cy="808.4" r="98.69" fx="1392.63" fy="808.4"/><radialGradient xlink:href="#radial-gradient" id="radial-gradient-4" cx="1392.63" cy="808.4" r="98.69" fx="1392.63" fy="808.4"/><radialGradient xlink:href="#radial-gradient" id="radial-gradient-5" cx="1392.63" cy="808.4" r="98.69" fx="1392.63" fy="808.4"/><radialGradient xlink:href="#radial-gradient" id="radial-gradient-6" cy="808.4" r="98.69" fy="808.4"/><radialGradient xlink:href="#radial-gradient" id="radial-gradient-7" cx="1392.63" cy="808.4" r="98.69" fx="1392.63" fy="808.4"/><radialGradient xlink:href="#radial-gradient" id="radial-gradient-8" cx="1392.63" cy="808.4" r="98.69" fx="1392.63" fy="808.4"/><radialGradient xlink:href="#radial-gradient" id="radial-gradient-9" cx="1392.63" cy="808.4" r="98.69" fx="1392.63" fy="808.4"/><radialGradient xlink:href="#radial-gradient" id="radial-gradient-10" cx="1392.63" cy="808.4" r="98.69" fx="1392.63" fy="808.4"/><radialGradient xlink:href="#radial-gradient" id="radial-gradient-11" cy="808.4" r="98.69" fy="808.4"/><radialGradient xlink:href="#radial-gradient" id="radial-gradient-12" cx="1392.63" cy="808.4" r="98.69" fx="1392.63" fy="808.4"/><radialGradient xlink:href="#radial-gradient" id="radial-gradient-13" cy="808.4" r="98.69" fy="808.4"/><radialGradient xlink:href="#radial-gradient" id="radial-gradient-14" cx="1392.63" cy="808.4" r="98.69" fx="1392.63" fy="808.4"/><radialGradient xlink:href="#radial-gradient" id="radial-gradient-15" cx="1392.63" cy="808.4" r="98.69" fx="1392.63" fy="808.4"/><radialGradient xlink:href="#radial-gradient" id="radial-gradient-16" cx="1392.63" cy="808.4" r="98.69" fx="1392.63" fy="808.4"/><radialGradient xlink:href="#radial-gradient" id="radial-gradient-17" cy="808.4" r="98.69" fy="808.4"/><radialGradient xlink:href="#radial-gradient" id="radial-gradient-18" cx="1392.63" cy="808.4" r="98.69" fx="1392.63" fy="808.4"/><radialGradient xlink:href="#radial-gradient" id="radial-gradient-19" cx="1392.63" cy="808.4" r="98.69" fx="1392.63" fy="808.4"/><radialGradient xlink:href="#radial-gradient" id="radial-gradient-20" cx="1392.63" cy="808.4" r="98.69" fx="1392.63" fy="808.4"/><radialGradient xlink:href="#radial-gradient" id="radial-gradient-21" cx="1392.63" cy="808.4" r="98.69" fx="1392.63" fy="808.4"/><radialGradient xlink:href="#radial-gradient" id="radial-gradient-22" cx="1392.63" cy="808.4" r="98.69" fx="1392.63" fy="808.4"/><radialGradient xlink:href="#radial-gradient" id="radial-gradient-23" cx="1392.63" cy="808.4" r="98.69" fx="1392.63" fy="808.4"/><radialGradient xlink:href="#radial-gradient" id="radial-gradient-24" cx="1392.63" cy="808.4" r="98.69" fx="1392.63" fy="808.4"/><radialGradient xlink:href="#radial-gradient" id="radial-gradient-25" cx="1392.63" cy="808.4" r="98.69" fx="1392.63" fy="808.4"/><radialGradient xlink:href="#radial-gradient" id="radial-gradient-26" cx="1392.63" cy="808.4" r="98.69" fx="1392.63" fy="808.4"/><radialGradient xlink:href="#radial-gradient" id="radial-gradient-27" cx="1392.63" cy="808.4" r="98.69" fx="1392.63" fy="808.4"/><radialGradient xlink:href="#radial-gradient" id="radial-gradient-28" cx="1392.63" cy="808.4" r="98.69" fx="1392.63" fy="808.4"/><radialGradient xlink:href="#radial-gradient" id="radial-gradient-29" cx="1392.63" cy="808.4" r="98.69" fx="1392.63" fy="808.4"/><radialGradient xlink:href="#radial-gradient" id="radial-gradient-30" cx="1392.63" cy="808.4" r="98.69" fx="1392.63" fy="808.4"/><radialGradient xlink:href="#radial-gradient" id="radial-gradient-31" cx="1392.63" cy="808.4" r="98.69" fx="1392.63" fy="808.4"/><radialGradient xlink:href="#radial-gradient" id="radial-gradient-32" cx="1392.63" cy="808.4" r="98.69" fx="1392.63" fy="808.4"/><radialGradient xlink:href="#radial-gradient" id="radial-gradient-33" cx="1392.63" cy="808.4" r="98.69" fx="1392.63" fy="808.4"/><radialGradient xlink:href="#radial-gradient" id="radial-gradient-34" cx="1392.63" cy="808.4" r="98.69" fx="1392.63" fy="808.4"/><radialGradient xlink:href="#radial-gradient" id="radial-gradient-35" cx="1392.63" cy="808.4" r="98.69" fx="1392.63" fy="808.4"/><radialGradient xlink:href="#radial-gradient" id="radial-gradient-36" cx="1392.63" cy="808.4" r="98.69" fx="1392.63" fy="808.4"/><radialGradient xlink:href="#radial-gradient" id="radial-gradient-37" cx="1392.63" cy="808.4" r="98.69" fx="1392.63" fy="808.4"/><radialGradient xlink:href="#radial-gradient" id="radial-gradient-38" cx="1392.63" cy="808.4" r="98.69" fx="1392.63" fy="808.4"/><radialGradient xlink:href="#radial-gradient" id="radial-gradient-39" cy="808.4" r="98.69" fy="808.4"/><radialGradient xlink:href="#radial-gradient" id="radial-gradient-40" cy="808.4" r="98.69" fy="808.4"/><radialGradient xlink:href="#radial-gradient" id="radial-gradient-41" cx="1392.63" cy="808.4" r="98.69" fx="1392.63" fy="808.4"/><radialGradient xlink:href="#radial-gradient" id="radial-gradient-42" cx="1392.63" cy="808.4" r="98.69" fx="1392.63" fy="808.4"/><radialGradient xlink:href="#radial-gradient" id="radial-gradient-43" cx="1392.63" cy="808.4" r="98.69" fx="1392.63" fy="808.4"/><radialGradient xlink:href="#radial-gradient" id="radial-gradient-44" cx="1392.63" cy="808.4" r="98.69" fx="1392.63" fy="808.4"/><radialGradient xlink:href="#radial-gradient" id="radial-gradient-45" cx="1392.63" cy="808.4" r="98.69" fx="1392.63" fy="808.4"/><radialGradient xlink:href="#radial-gradient" id="radial-gradient-46" cx="1392.63" cy="808.4" r="98.69" fx="1392.63" fy="808.4"/><radialGradient xlink:href="#radial-gradient" id="radial-gradient-47" cx="1392.63" cy="808.4" r="98.69" fx="1392.63" fy="808.4"/><radialGradient xlink:href="#radial-gradient" id="radial-gradient-48" cx="1392.63" cy="808.4" r="98.69" fx="1392.63" fy="808.4"/><radialGradient xlink:href="#radial-gradient" id="radial-gradient-49" cx="1392.63" cy="808.4" r="98.69" fx="1392.63" fy="808.4"/><radialGradient xlink:href="#radial-gradient" id="radial-gradient-50" cx="1392.63" cy="808.4" r="98.69" fx="1392.63" fy="808.4"/><radialGradient xlink:href="#radial-gradient" id="radial-gradient-51" cx="1392.63" cy="808.4" r="98.69" fx="1392.63" fy="808.4"/><radialGradient xlink:href="#radial-gradient" id="radial-gradient-52" cx="1392.63" cy="808.4" r="98.69" fx="1392.63" fy="808.4"/><radialGradient xlink:href="#radial-gradient" id="radial-gradient-53" cx="1392.63" cy="808.4" r="98.69" fx="1392.63" fy="808.4"/><radialGradient xlink:href="#radial-gradient" id="radial-gradient-54" cy="808.4" r="98.69" fy="808.4"/><radialGradient xlink:href="#radial-gradient" id="radial-gradient-55" cx="1392.63" cy="808.4" r="98.69" fx="1392.63" fy="808.4"/><radialGradient xlink:href="#radial-gradient" id="radial-gradient-56" cx="1392.63" cy="808.4" r="98.69" fx="1392.63" fy="808.4"/><radialGradient xlink:href="#radial-gradient" id="radial-gradient-57" cy="808.4" r="98.69" fy="808.4"/><radialGradient xlink:href="#radial-gradient" id="radial-gradient-58" cx="1392.63" cy="808.4" r="98.69" fx="1392.63" fy="808.4"/><radialGradient xlink:href="#radial-gradient" id="radial-gradient-59" cx="1392.63" cy="808.4" r="98.69" fx="1392.63" fy="808.4"/><radialGradient xlink:href="#radial-gradient" id="radial-gradient-60" cx="1392.63" cy="808.4" r="98.69" fx="1392.63" fy="808.4"/><radialGradient xlink:href="#radial-gradient" id="radial-gradient-61" cx="1392.63" cy="808.4" r="98.69" fx="1392.63" fy="808.4"/><radialGradient xlink:href="#radial-gradient" id="radial-gradient-62" cx="1392.63" cy="808.4" r="98.69" fx="1392.63" fy="808.4"/><radialGradient xlink:href="#radial-gradient" id="radial-gradient-63" cx="1392.63" cy="808.4" r="98.69" fx="1392.63" fy="808.4"/><radialGradient xlink:href="#radial-gradient" id="radial-gradient-64" cx="1392.63" cy="808.4" r="98.69" fx="1392.63" fy="808.4"/><radialGradient xlink:href="#radial-gradient" id="radial-gradient-65" cy="808.4" r="98.69" fy="808.4"/><radialGradient xlink:href="#radial-gradient" id="radial-gradient-66" cx="1392.63" cy="808.4" r="98.69" fx="1392.63" fy="808.4"/><radialGradient id="radial-gradient-67" cx="1067.74" cy="1369.64" r="30.45" fx="1067.74" fy="1369.64" gradientTransform="matrix(1 0 0 .83 0 -271.07)" gradientUnits="userSpaceOnUse"><stop offset="0" stop-color="#ffb100"/><stop offset=".28" stop-color="#ffa20e"/><stop offset=".63" stop-color="#ff961a"/><stop offset="1" stop-color="#ff931e"/></radialGradient><radialGradient xlink:href="#radial-gradient-67" id="radial-gradient-68" cx="1283.68" cy="2302.9" r="22.07" fx="1283.68" fy="2302.9" gradientTransform="rotate(6.97 5795.391 -1282.978)scale(1 .63)"/><radialGradient xlink:href="#radial-gradient-67" id="radial-gradient-69" cx="2526.56" cy="-3975.59" r="15.26" fx="2526.56" fy="-3975.59" gradientTransform="rotate(148.662 1269.003 -972.034)scale(1 .6344)"/><style>.cls-1,.cls-10,.cls-11,.cls-13,.cls-3,.cls-5,.cls-6,.cls-8{fill:none}.cls-14{fill:#dcebf1}.cls-18{fill:#003362}.cls-19{fill:#a9b028}.cls-10,.cls-11,.cls-13,.cls-3,.cls-35,.cls-36,.cls-5,.cls-6,.cls-8{stroke-miterlimit:10}.cls-10,.cls-11,.cls-35,.cls-36,.cls-5,.cls-6,.cls-8{stroke-linecap:round}.cls-6{stroke:#3d714b}.cls-37{fill:#ddced5}.cls-38{fill:#4a777a}.cls-3{stroke:#43155c;stroke-width:.78px}.cls-41{fill:#43155c}.cls-44{fill:#51a22c}.cls-5,.cls-6{stroke-width:4px}.cls-5{stroke:#00405e}.cls-50{fill:#588251}.cls-51{fill:#d7f3b6;opacity:.36}.cls-51,.cls-53{isolation:isolate}.cls-57{fill:#11734c}.cls-10,.cls-8{stroke-width:3px}.cls-123{fill:#499832}.cls-35{fill:#003f49}.cls-35,.cls-36{stroke:#007da6}.cls-125,.cls-36{fill:#fff}.cls-130{fill:#93be37}.cls-132{fill:#57a636}.cls-133{fill:#00436c}.cls-11,.cls-8{stroke:#527f00}.cls-134{fill:#949668}.cls-135{fill:#5b8148}.cls-138{fill:#69bb3e}.cls-53{mix-blend-mode:multiply;opacity:.1}.cls-140{fill:#a4d43d}.cls-142{fill:#00374d}.cls-143{fill:#00515b}.cls-10{stroke:#013238}.cls-11{stroke-width:2px}.cls-153{fill:#74bc74}.cls-13{stroke:#949668}</style></defs><g style="isolation:isolate"><g id="top"><path d="M1172.28 1081.42c-4.98-5.38-9.93-10.82-14.87-16.31-85.28-94.85-154.93-195.22-211.82-297.49" class="cls-8"/><path d="M1107.51 1005.23c42.3-61.31 90.34-237.92 90.34-237.92" class="cls-8"/><path d="M1197.96 767.97c10.09-6.41 20.04-10.86 28.44-16 1.27-.62 4.27-2.33 5.74-5.74" class="cls-11"/><path d="m1156.51 845 8.16 29.02c.14.5-.52.83-.83.41l-18.02-24.17s-.06-.1-.08-.15l-8.15-29.02c-.14-.5.52-.83.83-.41l18.01 24.16s.06.1.08.15Zm43.12-18.32-25.37 16.29c-.44.28-.16.96.35.86l29.52-6.11c.06-.01.11-.03.16-.06l25.36-16.28c.44-.28.16-.96-.35-.86l-29.51 6.11c-.06.01-.11.03-.16.06Zm-221.01-3.41c-.09-.82-.83-1.42-1.65-1.33l-10.41 1.12-23.3-2.98-40.34 5.66-25.6 10.85 20.74 3.44 49.25-5.46 20.18-8.6 9.8-1.05c.82-.09 1.42-.83 1.33-1.65" style="fill:#527f00"/><path d="m1197.51 766.54 5.7-38.73" class="cls-11"/><path d="M943.03 749.73h-4.97c-2.03 0-3.91 1.08-4.93 2.84l-2.48 4.3a5.67 5.67 0 0 0 0 5.69l2.48 4.3a5.69 5.69 0 0 0 4.93 2.84h4.97c2.03 0 3.91-1.08 4.93-2.84l2.48-4.3a5.67 5.67 0 0 0 0-5.69l-2.48-4.3a5.69 5.69 0 0 0-4.93-2.84m291.05-10.79h-3.92c-1.6 0-3.08.85-3.88 2.24l-1.96 3.39c-.8 1.39-.8 3.1 0 4.48l1.96 3.39c.8 1.39 2.28 2.24 3.88 2.24h3.92c1.6 0 3.08-.85 3.88-2.24l1.96-3.39c.8-1.39.8-3.1 0-4.48l-1.96-3.39a4.47 4.47 0 0 0-3.88-2.24m-29.17-24.14h-3.92c-1.6 0-3.08.85-3.88 2.24l-1.96 3.39c-.8 1.39-.8 3.1 0 4.48l1.96 3.39c.8 1.39 2.28 2.24 3.88 2.24h3.92c1.6 0 3.08-.85 3.88-2.24l1.96-3.39c.8-1.39.8-3.1 0-4.48l-1.96-3.39a4.47 4.47 0 0 0-3.88-2.24" class="cls-134"/><path d="M1581.18 1058.44c.48-1.74-1.57-3.12-2.29-3.49-.78-.4-5.09-2.57-5.87-2.29s-2.18 3.71-2.14 4.44c.05.91 6.73.4 8.16 4.75.47 1.45 1.94-2.67 2.14-3.41" class="cls-130"/><path d="M1573.91 1053.58a4.85 4.85 0 0 1-1.66 3.47c-.8.69-1.86 1.12-3.11 1.11l-10.23-.12-36.07-2.12c-.29-.01-.57 0-.86.03l-16.76 2.06c-1.36.17-2.72-.26-3.74-1.18l-11.17-10.08c-.43-.4-.79-.87-1.05-1.39l-14.44-28.75a4.73 4.73 0 0 1 2.54-6.53l21.87-8.34c1.68-.64 3.58-.27 4.9.95l11.54 10.75c.96.89 2.24 1.34 3.54 1.25l21.64-1.5c1.6-.11 3.15.6 4.11 1.89l23.43 31.36c.22.29.47.56.75.8l3.08 2.57c1.23 1.03 1.75 2.42 1.69 3.77" style="fill:#316060"/><path d="M1573.91 1053.58a4.85 4.85 0 0 1-1.66 3.47l-8.22-3.93-23.6-8.86-17.72-4.01-13.24-.72-15.57 1.55c1.07-.32 10.92-2.95 10.92-2.95l-3.41-3.61 7.7 3.14 5.38-.26-4.79-4.35 9.67 4.93 7.02.21-3.45-4.42 6.17 4.83 12.29 3.46 4.92 1.38-3.77-5.48 6.23 6.17 8.49 2.84 8.54 3.91z" class="cls-14"/><path d="M1588.85 1028.52c-.01.85-.36 2.89-.94 5.05l-.03.13c-.87 3.22-2.23 6.64-3.67 6.64-.56 0-1.19-.21-1.08-1.25.79-7.66-10.26-12.02-13.09-13.86-3.72-2.42-15-11.09-20.96-14.39-.18-.1-.31-.27-.4-.51-.38-1.03.16-3.24 2.65-5.4 2.03-1.76 7.61 2.67 9.19 3.61 8.27 4.94 16.36 11.56 24.76 16.24.75.41 1.75.6 2.51 1.17.62.48 1.08 1.22 1.06 2.57" class="cls-140"/><path d="M1588.14 1031.69c-.01.4-.09 1.06-.23 1.88l-.03.13c-.87 3.22-2.23 6.64-3.67 6.64-.56 0-1.19-.21-1.08-1.25.79-7.66-10.26-12.02-13.09-13.86-3.72-2.42-15-11.09-20.96-14.39-.18-.1-.31-.27-.4-.51.44-.71 1.07-1.47 1.94-2.23 2.02-1.76 7.61 2.67 9.18 3.6 8.28 4.95 16.36 11.56 24.77 16.24.74.42 1.75.61 2.51 1.18.62.48 1.07 1.22 1.06 2.57" class="cls-130"/><path d="m1441.8 996.54 8.16-.05a6.45 6.45 0 0 1 5.95 3.88l5.12 11.8a6.44 6.44 0 0 0 4.18 3.64l5.8 1.62c1.21.34 2.5.32 3.7-.07l14.76-4.72c3.42-1.09 7.08.82 8.13 4.25l.12.38a6.44 6.44 0 0 0 5.78 4.55l3.77.22c1.37.08 2.74-.28 3.89-1.03l10.27-6.66c4.08-2.65 9.51 0 9.93 4.85l.13 1.52a6.47 6.47 0 0 0 2.78 4.76l4.66 3.19a6.43 6.43 0 0 0 6.54.43l8.87-4.47a6.44 6.44 0 0 0 3.45-6.84l-6.81-39.85a6.44 6.44 0 0 0-5.97-5.35l-6.43-.38a6.45 6.45 0 0 1-5.65-4.16l-3.96-10.47a6.43 6.43 0 0 0-6.6-4.14l-32.53 2.9c-1.19.11-2.39-.12-3.46-.66l-12.49-6.25a6.46 6.46 0 0 0-5.5-.13l-34.88 15.44a6.45 6.45 0 0 0-3.82 5.41l-1.11 14.53a6.43 6.43 0 0 0 3.2 6.07l9.98 5.78Z" class="cls-38"/><path d="M1555.84 1005.77c-3.42-1.05-13.65-5.93-13.65-5.93l-.53-7.62s-1.84 6.04-2.63 5.78-14.19-4.47-14.19-5.26-.79-10.78-.79-10.78l-1.84 9.72-13.67-4.73-2.1-8.41v7.62l-23.65-6.31-.25-.46-3.17-5.85.53 6.57-13.4-1.84 33.11 10.51-4.21 3.42 7.1-2.37 31.01 11.04-6.83 4.73 11.3-2.63 18.57 7.61-.71-4.83Z" class="cls-14"/><path id="Path_46" d="M1646.56 894.9c-78.77 19.89-66.51-2.67-104.41 14.69-5.96 2.73-15.17 38.61 7.82 41.5 9.8 1.23 3.44-3.49 21.76-13.57 2.74-1.51 28.18 1.2 33.87-.07 5.26-1.17 8.34-4.61 11.27-7.8l13.26-9.19c1.19-.18 13.47 15 32.28 15.67 5.27.18 8.8-47.45-15.84-41.23Z" style="fill:#325124"/><path id="Path_47" d="M1680.6 927.73c-7.89-4.85-8.46-17.83-21.61-14.35-6.16 1.63-8.25 13.28-10.42 18.4-1.4 3.32-1.85 2.95-4.99 3.78-2 .22-4.03.09-5.98-.4-3.07-.96-2.71-.94-3.19-3.99-.69-4.36-.31-3.12.01-7.35.31-4.16.4-9.23 1.24-13.26.45-2.16 1.72-3.44.95-5.67-1.35-3.89-10.03-6.9-13.67-6.83-12.07.23-12.6 14.41-15.6 23.12-.97 2.82-2.35 12.01-5.19 12.8-7.99-8.02-14.52-27.56-26.11-31.11-3.98-1.22-8.94-.15-12.61 1.52-3.68 1.67-13.94 8.64-14.03 13.01-.13 6.21 9.8 9.82 14.29 11.9l.04.02c5.43 2.58 10.37 20.38 11.88 26.29.21.81.78 1.91-1.76 3.15a3.26 3.26 0 0 1-3.6-.28c-2.29-2.35-7.21-8.76-9.69-11.78l-1.79-2.15-.4-.47c-.56-.66-1.12-1.31-1.69-1.97l-.11-.12c-2.54-2.93-5.16-5.86-7.7-8.72-8.12-9.14-15.81-9.06-25.62-.06-3.45 3.16-6.88 5.31-7.47 10.3a5.586 5.586 0 0 0 6.85 6.23c9.13-1.61 20.1 7.78 26.83 13.61a88.1 88.1 0 0 1 20.16 26.35c10.42 21.78 11.53 35.64 10.97 56.08-.19 6.89-1.65 13.23-2.29 19.89-.54 5.68.58 14.77-3.4 18.76 7.99 7.83 59.1 5.48 62.51-1.7-3.41-13.07-2.17-28.98-2.71-35.23-.93-10.57-3.4-20.78-2.97-31.54.81-20.02 8.76-40.67 21.17-57a50.2 50.2 0 0 1 21.54-16.86c3.14-1.36 10.73-4.63 12.97-7.26 3.98-4.66-3.45-5.05-6.8-7.11Z" class="cls-140"/><path id="Path_48" d="M1586.18 1048.55c-.19 6.88-1.65 13.23-2.29 19.89-.54 5.66.57 14.68-3.34 18.7a13.4 13.4 0 0 1-5.63-2.7c3.98-3.99 2.86-13.07 3.4-18.76.64-6.66 2.1-13 2.29-19.89.56-20.44-.55-34.3-10.97-56.08a88.1 88.1 0 0 0-20.16-26.35 95.4 95.4 0 0 0-12.73-9.72c6.79 2.57 13.58 8.4 18.3 12.48a88.1 88.1 0 0 1 20.16 26.35c10.41 21.77 11.52 35.63 10.96 56.07Z" class="cls-53"/><path id="Path_49" d="M1589.76 1000.96c3.64 1.25 4.02 4.57 5.05 7.72 3.01 9.18 3.36 15.6-.46 25.38 0 0 6.56-24.38-6.39-29.93-3.8-1.62-8.33 2.22-11.97.8 0 0 9.29-5.51 13.77-3.98Z" class="cls-53"/><path id="Path_50" d="M1623.31 984.28c-3.64 1.25-4.02 4.57-5.05 7.72-3.01 9.18-3.36 15.6.46 25.38 0 0-6.56-24.38 6.39-29.93 3.8-1.62 8.33 2.22 11.97.8 0 0-9.29-5.51-13.77-3.98Z" class="cls-53"/><path id="Path_52" d="M1616.1 921.77a90 90 0 0 1-7.11 15.21c-1.51 2.53-3.73 7.26-7.25 6.8-.13-3.29.05-6.59.53-9.85 2.76-1.02 4.11-9.98 5.06-12.76 2.57-7.46 3.33-18.96 11.11-22.23 3.9 4.36-1.19 19.66-2.34 22.82Z" class="cls-53"/><path id="Path_53" d="M1661.12 922.5c-3.01 4.4-6.38 8.55-10.05 12.41-4.1 4.54-7.79 9.71-12.74 13.32-2.95 2.16-6.06 4.51-7.57.39-1.19-3.26-.38-7.99 1.08-11 .84-1.73 1.76-3.51 2.74-5.3.28 1.92.39 2.03 3.02 2.85 1.96.49 3.98.62 5.98.4 3.14-.82 3.58-.46 4.99-3.78 2.16-5.12 4.26-16.77 10.41-18.4.92-.25 1.85-.42 2.8-.52 2.1 2.7.99 7.06-.68 9.63Z" class="cls-53"/><path id="Path_54" d="M1579.81 951.98c-.08 6.8-5.14 13.48-11.37 6.98-4.61-4.8-7.66-11.08-12.97-15.56a16.5 16.5 0 0 1-3.14-6.24c1.42 1.6 2.84 3.21 4.24 4.83.04.04.07.08.11.12.57.66 1.13 1.31 1.68 1.97.14.16.27.31.4.47.6.72 1.2 1.43 1.79 2.15 2.48 3.02 7.4 9.42 9.69 11.78 1.03.81 2.45.92 3.6.28 2.54-1.24 1.96-2.34 1.76-3.15-1.51-5.91-6.45-23.71-11.88-26.29-.01 0-.02-.01-.04-.02-3.32-1.54-9.62-3.91-12.62-7.56.32-3.68 1.22-7.3 2.67-10.7a49.5 49.5 0 0 1 7.68-5.58c4.14 2.83 7.22 13.99 8.32 17.42 2.84 8.85 10.19 19.7 10.08 29.1" class="cls-53"/><path id="Path_55" d="M1607.26 960.42c-.24.43-.52.83-.84 1.19 1.9-3.85-1.87-7.31-7.04-6.58-4.63.65-7.85 6.81-13.38 5.29a4.3 4.3 0 0 1-1.44-.84c-.51-.45-1.06-.86-1.64-1.22-.96-.53-3.16-.84-1.63-2.46 4.6 1 9.33-.87 13.72-1.23 3.87-.32 9.74-2.82 11.74 1.6.79 1.74 1.32 2.75.5 4.25Z" class="cls-53"/><path id="Path_56" d="M1584.57 959.48c.42.37.91.65 1.44.84 5.53 1.52 8.74-4.64 13.38-5.29 5.17-.73 8.94 2.73 7.04 6.58.37-.44-12.2 11.77-21.86-2.12Z" class="cls-51"/><path id="Path_57" d="M1614.8 1077.02c-1.01-7.19 6.73-21.39 6.9-25.11.28-6.23-2.58-7.2-5.94-11.54-3.83-4.97-.15-8.44 1.71-13.47 2.81-7.59 2.4-17.38 2.56-25.41-.31 16.19 8.51 28.1 8.51 45.43 0 7.4 2.46 19.77.06 26.66-1.03 2.97-2.63 6.79-6.39 7.45-4.94.87-6.99-.93-7.42-4.01Z" class="cls-51"/><path id="Path_58" d="M1657.01 934.13c-4.61 11.1-17.55 18.84-23.52 29.37 8.72-8.02 23.31-14.35 28.7-24.87-2.51-2-4.8-4.16-7.31-5.56" class="cls-51"/><path id="Path_59" d="M1633.41 988.58c-.5 7.39-7.32 3.33-10.43.07.66-.48 1.38-.88 2.13-1.2 2.22-.95 4.68-.03 7.08.61.4.17.81.34 1.22.52" class="cls-51"/><path id="Path_60" d="M1590.57 1005.69c-1.47 5.43-7.37 6.27-11.24 1.33 0-.67.11-1.34.32-1.97 2.77-.57 5.72-2.02 8.32-.91.94.4 1.81.92 2.6 1.56Z" class="cls-51"/><path id="Path_62" d="M1715.09 908.55c-4.73-6.65-14.62-5.13-18.11-14.05-2.53-6.46.66-13.18-5.57-18.26a15.9 15.9 0 0 0-5.67-2.83l-.21-.06c-4.17-1.2-8.81-1.39-12.78-2.79-1.46-.49-2.83-1.19-4.09-2.07-3-2.16-3.56-6.6-5.11-9.71-1.23-2.47-2.3-5.6-3.51-8.7a10.7 10.7 0 0 0-9.95-6.78l-25.04-.04-17.57-8.43c-4.21-1.16-8.58-2.33-12.56-3.27-1.84-.43-3.76-.5-5.63-.2l-10.93 1.75c-3.34.53-6.49 1.89-9.17 3.95-4.52 3.47-8.71 6.67-10.98 5.77a46 46 0 0 0-7.32-2.45c-2.98-.74-6.13-.32-8.81 1.17-5.07 2.85-17.85 11.97-18.98 15.61-.51 1.85-.7 3.77-.57 5.68.25 3.41.75 6.8 1.47 10.14 1.6 8.72-11.2 9.23-16.59 11.61-6.81 3.01-6.4 9.75-6.94 16.25-.29 3.53-.87 6.98-3.01 9.74-4.23 5.44-13.89 2.9-14.2 12.13-.04 1.17-.09 3.58-.11 6.48-.05 6.6.08 15.78.92 18.96 1.24 4.68 11.44 12.12 17.25 15.44 1.08.67 2.23 1.22 3.43 1.65 5.15 1.4 41.38-7.62 44.91-11.18 5.43-5.46 10.67-28.62 21.92-28.54 3.13.02 28.18 1.2 33.87-.07 5.26-1.17 8.34-4.61 11.27-7.8 1.36-1.59 2.88-3.03 4.55-4.29 2.2-1.54 5.51-4.41 8.71-4.89 1.2-.21 2.43.02 3.47.65 4.36 2.7 9.99 14.34 28.8 15.02 5.27.19 5.66 1.9 6.46 6.28.69 3.74 1.2 8.84 4.01 11.66 3.74 3.74 10.87 6.47 15.95 7.37 10.14 1.79 16.39-5.86 20.42-14.08.85-1.73 1.6-3.49 2.27-5.2 2.63-6.66 8.78-14.55 3.75-21.62Z" style="fill:#476841"/><path id="Path_63" d="m1541.01 860.84 11.13-17.26c1.52.46 3.1 1.08 4.73 1.73l.3.12c.6.23 1.25.35 1.89.35 3.37 0 7.37-3.08 12-6.64l.39-.3c1.95-1.5 4.23-2.48 6.66-2.87l11.64-1.86c1.51-.24 3.06-.18 4.55.17 4.13.97 8.56 2.17 12.2 3.17l14.38 6.9-22.26 32.05-31.51 1.43z" class="cls-50"/><path id="Path_64" d="M1552.23 950.33c5.03 5.88 11.59 11.27 16.25 16.68.29-5.93-7.07-16.68-13.76-21.67" class="cls-51"/><path id="Path_65" d="m1616.7 917.65 13.26-9.19c-3.2.48-6.51 3.35-8.71 4.89-1.67 1.26-3.19 2.7-4.55 4.29Z" class="cls-1"/><path id="Path_66" d="m1616.7 917.65 13.26-9.19c-3.2.48-6.51 3.35-8.71 4.89-1.67 1.26-3.19 2.7-4.55 4.29Z" class="cls-1"/><path id="Path_67" d="M1485.97 926.19c.02-1.49.05-2.68.08-3.39.12-3.52 1.82-4.28 5.67-5.65.39-.14.79-.28 1.2-.43l-5.9 9.4z" class="cls-50"/><path id="Path_68" d="M1525.4 859.79c.07-.61.19-1.22.36-1.81.75-1.99 10.54-10 17.68-14 .74-.42 1.55-.74 2.38-.93l-10.28 15.93-10.15.81Z" class="cls-50"/><path id="Path_69" d="M1499.62 959.29c-6.88-4.44-12.26-9.61-12.86-11.86-.53-1.99-.83-7.74-.84-15.63l1.35-.09 14.52 19.91-2.17 7.66Z" class="cls-50"/><path id="Path_70" d="M1691.58 946.9c-.81 0-1.63-.08-2.43-.22-4.75-.84-11.24-3.38-14.46-6.6-1.81-1.81-2.45-5.58-2.96-8.61-.09-.54-.18-1.07-.27-1.57-.95-5.16-2.04-8.31-9.12-8.57-12.98-.47-19.13-6.58-23.19-10.77l25.72-.87 30.45 28.93 8.92-.3c-3.67 5.76-7.83 8.57-12.65 8.57Z" class="cls-50"/><path id="Path_71" d="M1506.28 962.59c-.27 0-.55 0-.82-.05-.29-.1-.57-.21-.84-.35l2.35-8.31h36.87c-9.01 3.33-30.43 8.71-37.56 8.71" class="cls-50"/><path id="Path_72" d="m1561.75 922.65-14-19.23 19.21-19.98 32.11-1.46 26.43 25.12q-2.43 1.35-4.62 3.06c-.44.33-.85.63-1.22.89a30.7 30.7 0 0 0-4.79 4.46l-10.29 7.13h-42.82Z" class="cls-50"/><path id="Path_73" d="M1506.28 948.28 1492 928.7l14.11-22.49 36.7-.02 14.33 19.65-9.06 22.44z" class="cls-50"/><path id="Path_74" d="m1603.8 878.77 22.72-32.71 23.2.04c3.49 0 6.62 2.15 7.88 5.41.26.67.52 1.35.77 2.03.88 2.34 1.71 4.55 2.68 6.49.43.93.81 1.89 1.13 2.86.97 2.75 2.07 5.87 4.85 7.87 1.47 1.04 3.09 1.86 4.8 2.44 2.42.77 4.9 1.34 7.41 1.69.66.11 1.31.22 1.95.34l-16.86 28.88-32.7 1.11z" class="cls-50"/><path id="Path_75" d="m1669.51 906.38 17.47-29.57c.96.4 1.85.94 2.66 1.59 2.94 2.39 3.1 5.15 3.32 8.96.03 2.77.51 5.53 1.42 8.15 2.38 6.08 7.13 8.15 11.33 9.98 2.93 1.28 5.47 2.38 7.1 4.68 2.78 3.91 1.03 8.22-1.95 14.34-.74 1.53-1.51 3.1-2.11 4.64q-.72 1.83-1.47 3.48l-9.8.33-27.96-26.57Z" class="cls-50"/><path id="Path_76" d="M1503.37 899.36c.01-.19.03-.39.04-.58.41-6.17.85-9.76 5.12-11.64 1.47-.57 2.97-1.03 4.5-1.4 3.07-.83 6.56-1.76 9.27-3.49 4.62-2.95 4.96-6.95 4.44-9.79-.08-.43-.17-.89-.26-1.36-.32-1.71-.7-3.7-.95-5.7l10.86-.86 24.87 16.64-18.38 19.22-37.52.22-2-1.25Z" class="cls-50"/><circle id="Ellipse_8" cx="1584.87" cy="888.74" r="1.92" class="cls-153"/><circle id="Ellipse_9" cx="1588.49" cy="888.74" r="1.92" class="cls-153"/><circle id="Ellipse_10" cx="1593.24" cy="886.82" r="1.92" class="cls-153"/><circle id="Ellipse_11" cx="1598.32" cy="888.74" r="1.92" class="cls-153"/><circle id="Ellipse_12" cx="1603.33" cy="890.31" r="1.92" class="cls-153"/><circle id="Ellipse_13" cx="1580.06" cy="890.31" r="1.92" class="cls-153"/><circle id="Ellipse_14" cx="1575.15" cy="892.23" r="1.92" class="cls-153"/><circle id="Ellipse_19" cx="1654.66" cy="854.93" r="1.92" class="cls-153"/><circle id="Ellipse_22" cx="1543.84" cy="913.65" r="1.92" class="cls-153"/><circle id="Ellipse_23" cx="1523.49" cy="912.08" r="1.92" class="cls-153"/><circle id="Ellipse_24" cx="1528.23" cy="910.16" r="1.92" class="cls-153"/><circle id="Ellipse_25" cx="1531.86" cy="912.08" r="1.92" class="cls-153"/><circle id="Ellipse_26" cx="1535.22" cy="909.59" r="1.92" class="cls-153"/><circle id="Ellipse_27" cx="1517.94" cy="909.7" r="1.92" class="cls-153"/><circle id="Ellipse_28" cx="1512.95" cy="909.7" r="1.92" class="cls-153"/><circle id="Ellipse_29" cx="1652.9" cy="914" r="1.92" class="cls-153"/><circle id="Ellipse_30" cx="1658.08" cy="912.87" r="1.92" class="cls-153"/><circle id="Ellipse_31" cx="1662.82" cy="914.23" r="1.92" class="cls-153"/><circle id="Ellipse_32" cx="1667.9" cy="916.14" r="1.92" class="cls-153"/><circle id="Ellipse_33" cx="1605.99" cy="894.9" r="1.92" class="cls-153"/><circle id="Ellipse_34" cx="1647.73" cy="913.42" r="1.92" class="cls-153"/><circle id="Ellipse_35" cx="1656.16" cy="859.79" r="1.92" class="cls-153"/><circle id="Ellipse_36" cx="1694.3" cy="903.02" r="1.92" class="cls-153"/><circle id="Ellipse_37" cx="1710.4" cy="912.87" r="1.92" class="cls-153"/><circle id="Ellipse_38" cx="1691.49" cy="896.81" r="1.92" class="cls-153"/><circle id="Ellipse_39" cx="1687.41" cy="888.39" r="1.92" class="cls-153"/><circle id="Ellipse_40" cx="1688.11" cy="882.96" r="1.92" class="cls-153"/><circle id="Ellipse_41" cx="1698.11" cy="906.35" r="1.92" class="cls-153"/><circle id="Ellipse_42" cx="1702.27" cy="909.59" r="1.92" class="cls-153"/><circle id="Ellipse_43" cx="1576.97" cy="886.82" r="1.92" class="cls-153"/><circle id="Ellipse_44" cx="1565.71" cy="892.23" r="1.92" class="cls-153"/><circle id="Ellipse_45" cx="1530.32" cy="868.48" r="1.92" class="cls-153"/><circle id="Ellipse_46" cx="1535.4" cy="870.39" r="1.92" class="cls-153"/><circle id="Ellipse_47" cx="1540.41" cy="871.97" r="1.92" class="cls-153"/><circle id="Ellipse_48" cx="1560.32" cy="894.9" r="1.92" class="cls-153"/><circle id="Ellipse_49" cx="1540.24" cy="909.59" r="1.92" class="cls-153"/><circle id="Ellipse_50" cx="1528.65" cy="856.83" r="1.92" class="cls-153"/><circle id="Ellipse_51" cx="1533.03" cy="854.92" r="1.92" class="cls-153"/><circle id="Ellipse_53" cx="1569.71" cy="886.82" r="1.92" class="cls-153"/><circle id="Ellipse_55" cx="1508.22" cy="911.5" r="1.92" class="cls-153"/><path d="M1641.43 1000.25c-1.43-.35-2.78-.7-3.95-.96-4.87-1.09-9.41-1.15-13.9-2.91-4.87-1.9-5.13-2.79-6.23-6.66-.74-2.6-2.44-5.93 2.46-6.95 4.59-.95 8.35 1.88 12.63 1.79.45 0 .87-.05 1.26-.11 2.84 2.7 5.03 6.08 6.22 10.09.52 1.72 1.29 3.75 1.51 5.71" style="fill:#6593ab"/><path d="M1651.2 1001.69c-2.68.22-6.43-.62-9.77-1.44-.21-1.96-.99-3.99-1.51-5.71-1.19-4.01-3.38-7.39-6.22-10.09 1.05-.17 1.89-.52 2.63-.98 1.48-.93 2.54-2.32 4.01-3.63 3.39-3 4.51-1.71 9.09.27 3.15 1.36 9.36 3.56 10.91 6.25 2.49 4.34-3.57 14.9-9.13 15.34Z" style="fill:#72a1bb"/><path d="M1587.81 1002.13c.45-.06.6-.65.22-.9-1.45-.97-2.23-2.78-3.24-3.78-2.1-2.1-4.08-4.28-6.24-6.35-3.45-3.31-10.79-4.08-16.34-5.6-2.61 1.78 3.48 5.33 4.99 6.77 2.73 2.61 5.84 4.79 6.24 8.88.3 3.01 1.67 3.67 5.87 3.47 1.65-.08 3.15-1.76 8.49-2.49Zm15.38-47.41c.29-.17-2.19-1.47-2.36-1.56-1.06-.55-2.15-.86-3.27-1.31-2.53-1.04-4.79-2.62-7.25-3.83-4.29-2.1-8.39-3.81-13.17-4.28-1.77-.17-9.81-.09-10.43 1.01 3.53 1.92 15.4 4 16.08 5.34.88 1.73-.64 2.76-1.2 4.26-1.29 3.46 6.14 2.22 7.83 1.95 3.34-.55 6.67-.91 10.06-1.07.7-.03 3.03-.1 3.7-.5Z" class="cls-38"/><path d="m1695.24 1017.77-.92 5.21-.75 4.22-36.61 17.39c-2.88 1.37-17.39 9.77-20.57 14.24-2.11 2.97-6.4 12.83-10.85 8.8a7.3 7.3 0 0 1-2.08-3.32c-.68-2.19-.47-4.71.28-7.05.62-1.97 1.61-3.81 2.75-5.2 2.49-3.03 6.47-4.05 9.92-5.72 19.61-9.52 39.22-19.05 58.83-28.57" class="cls-130"/><path d="m1695.24 1017.77-.92 5.21-36.46 16.51c-2.9 1.32-17.56 9.45-20.82 13.86-2.16 2.93-6.64 12.72-11.01 8.6-1.01-.95-1.66-2.1-2.02-3.35-.13-.44-.22-.88-.27-1.34.62-1.97 1.61-3.81 2.75-5.2 2.49-3.03 6.47-4.05 9.92-5.72 19.61-9.52 39.22-19.05 58.83-28.57" class="cls-140"/><path d="M1877.58 958.41c-3.09.19-7.27 3.2-10.18 4.8-7.14 3.92-14.39 8.71-21.36 13.13-8.38 5.31-17.05 9.99-25.3 15.43-8.56 5.64-17.29 8.3-26.27 13.04-15.75 8.32-31 17.4-48.22 22.53-9.84 2.93-19.49 2.41-29.6 1.95-6.32-.28-18.89 1.22-24.13-3.19-4.01-3.37-1.34-7.28 1.35-12.36s5.66-11.51 9.97-15.21c6.77-5.8 18.01-7.56 26.28-10.16 15.38-4.84 30.76-9.79 46.16-14.43 10.87-3.27 23.19-5.85 32.89-12.04 6.02-3.84 11.81-6.68 17.97-9.97 3.18-1.7 5.19-5.62 8.17-7.13 5.64-2.85 14.27 1.36 20.07 3.6 6.56 2.53 15.37 4.12 20.38 9.38-.27 2.14-1.01 2.31 1.81.63Z" style="fill:#537964"/><path d="M1682.51 981.77c3.32 12.76-.74 23.39-8.86 33.28l-3.65 20.66c5.98-1.71 12.49-6.24 18.58-7.42 2.67-.52 3.21.55 5.91.12.73-.11 1.37-.2 1.96-.3 2.18-.35 3.63-.78 5.63-2.67 1.96-1.85 3.12-4.23 3.97-6.83.81-2.46 1.33-5.11 2.01-7.66.19-.74.39-1.47.63-2.18.71-2.24 1.65-4.31 3.12-6.02.6-.69 1.2-1.24 1.81-1.66 3.76-2.63 7.57-.32 11.12 2.94.3.27.58.54.87.82 1.31 1.27 2.58 2.63 3.8 3.86.28.29.55.56.82.83.53.53 1.06 1.02 1.56 1.47 6.15 5.33 12.94 10.87 20.45 14.35 4.27 1.98 8.78 3.3 13.53 3.55 7.67.38 18.85 3.98 21.59-4.05 1.7-5 .66-10.32-1.33-15.53-2.05-5.41-5.11-10.72-7.1-15.43-4.14-9.77-4.39-15.74 7.61-11.71 10.19 3.41 20.46 7.88 30.8 11.67 7.36 2.69 14.76 5.06 22.2 6.46 14.28 2.7 12.7-7.12 9.59-17.95-.65-2.26-1.24-4.55-1.81-6.84-1.52-6.08-2.95-12.21-5.13-18.06-1.12-3.01-5-8.66-2.35-11.44 10.38 2.01 21.33 12.06 32.18 14.49 2.46.54 4.92.7 7.36.28-.39-.73-.83-1.4-1.34-2.03l-.57-.29-.1-.05-1.85-.93-14.21-7.11-17.86-8.93c-4.66-.78-8.78-3.19-13.33-3.42-3.7 3.71.43 9.99-4.38 13.29-9.63-5.37-21.16-9.23-32-11.45-5.74-1.18-17.28-5.97-22.55-2.27-4.73 3.33-3.65 11.6-6.76 15.91-5.92 8.25-26.1-4.14-34.2-6.25-7.95-2.08-19.04-6.07-25.33.86-4.32 4.76-2.78 10.84-5.71 15.87-4.39 7.55-9.68-1.47-16.27 1.18-7 2.82-1.71 11.63-.42 16.58Z" style="fill:#56829b"/><path d="m1738.22 1000.37-12.93 4.59c1.62 1.49 3.19 3.17 4.67 4.68l19.21-8.13 22.81-8.2-29.01 5.36 3.41-17.31-8.15 19Zm-29.53 8.4c.71-2.23 1.65-4.31 3.13-6.02.6-.69 1.19-1.24 1.8-1.66l1.6-17.84-6.53 25.51Zm-38.72 26.98 10.2-6.18 11.17-4.74 14.7-6.22c.81-2.46 1.33-5.11 2.01-7.66l-12.56 5.07.06-5.47-.48-10.73-4.11 18.75z" class="cls-14"/><circle id="Ellipse_1" cx="1587.8" cy="838.51" r="1.92" class="cls-153"/><circle id="Ellipse_2" cx="1592.54" cy="836.59" r="1.92" class="cls-153"/><circle id="Ellipse_3" cx="1597.62" cy="838.51" r="1.92" class="cls-153"/><circle id="Ellipse_4" cx="1602.63" cy="840.08" r="1.92" class="cls-153"/><circle id="Ellipse_5" cx="1584.17" cy="838.51" r="1.92" class="cls-153"/><circle id="Ellipse_6" cx="1579.36" cy="840.08" r="1.92" class="cls-153"/><circle id="Ellipse_7" cx="1574.45" cy="841.99" r="1.92" class="cls-153"/><circle id="Ellipse_15" cx="1636.67" cy="853.41" r="1.92" class="cls-153"/><circle id="Ellipse_16" cx="1640.3" cy="853.41" r="1.92" class="cls-153"/><circle id="Ellipse_17" cx="1645.05" cy="851.49" r="1.92" class="cls-153"/><circle id="Ellipse_18" cx="1650.12" cy="853.41" r="1.92" class="cls-153"/><circle id="Ellipse_20" cx="1634.76" cy="849.58" r="1.92" class="cls-153"/><circle id="Ellipse_21" cx="1628.87" cy="849.58" r="1.92" class="cls-153"/><circle id="Ellipse_52" cx="1536.8" cy="851.62" r="1.92" class="cls-153"/><circle id="Ellipse_54" cx="1567.83" cy="845.22" r="1.92" class="cls-153"/><circle id="Ellipse_56" cx="1553.85" cy="847.51" r="1.92" class="cls-153"/><path id="Path_18" d="m1196.77 938.27.31-11.11c0-.17-.01-.33-.05-.5l-2.42-10.53c-.17-.72-.72-1.29-1.44-1.47l-15.74-3.97c-.57-.14-1.17-.03-1.64.32l-11.64 8.47-10.94 8.88c-.28.2-24.47 4.27-24.47 4.27l-20.28 1.15c-2.16.33 57.95-11.87 58.2-11.8l25.89 9.39c.32.18.59.44.77.76l3.45 6.13Z" class="cls-19"/><path id="Path_19" d="m1229.61 906.35-11.24 8.11-3.99 2.8c-1.41.99-3.33-.19-3.08-1.9l4.43-29.9c.05-.34.19-.66.4-.93l9.08-11.46c.19-.23.42-.42.69-.55l19.32-9.29c1.04-.5 2.29 0 2.7 1.09l2.37 6.36c.21.56.15 1.19-.16 1.71l-20.53 33.97Z" class="cls-19"/><path id="Path_20" d="m1222.44 937.6 25.12 8.02c.34.11.64.31.88.58l22.8 25.94c.24.28.4.62.46.98l3.61 21.86c.18 1.07-.55 2.08-1.62 2.26l-10.19 1.7c-.26.04-.52.03-.77-.02l-37.1-8.65c-.58-.14-1.07-.53-1.33-1.07l-13.37-27.99c-.17-.35-.23-.74-.17-1.13l2.36-16.37c.05-.33 0-.68-.11-.99l-.86-2.22c-.49-1.27.43-2.64 1.79-2.68l8.49-.21Z" class="cls-19"/><path id="Path_21" d="m1204.04 1110.62-6.95-167.26c0-.1-.03-.19-.08-.27l-7.48-12.61a.54.54 0 0 0-.33-.26l-25.18-7.42a.53.53 0 0 0-.28-.01l-55.88 11.52-.63-.18.09-.57 35.35-7.39 23.14-5.21c.11-.02.22-.02.32.02l27.77 9.99c.11.04.21.12.28.22l5.08 7.36c.28.41.92.29 1.04-.19l.35-1.44s.03-.09.05-.14l30.67-56.56-27.49 56.3c-.03.06-.05.12-.05.18l-.68 5.53c-.06.52.53.85.94.52l7.04-5.63c.19-.15.45-.17.65-.05l2.69 1.57c.07.04.13.1.18.17l7.75 10.95s.05.06.08.09l27.2 25.39-32.1-28.69s-.05-.04-.07-.06l-7.75-4.98a.57.57 0 0 0-.76.12l-5.81 7.15c-.09.11-.13.25-.13.39l6.72 162.15c.02.39-.35.68-.72.58l-5.01-1.3Z" style="fill:#737d28"/><path d="m162.77 796.73-7.27 5.22-.93 1.11-2.8-5.21v-.38l-37.32-62.31 33.78 60.82-2.05-2.98-26.66-11.56-8.2 2.61 2.43 2.05 33.55 13.42 1.86 8.39-14.2 49.71-4.85-3.54-14.51-.54-1.43 2.37 15.21 1.9 4.46 4.85 8.57 114.63-2.61-2.05-4.84-.37 6.33 8.76 2.99 7.83-1.12 86.86 10.44 1.49-.75-83.51 6.15-5.77 8.76-2.61v-2.24l-15.66 4.29-9.17-85.82 14.79-23.91-16.22 16.07-.95-35.88 6.65-28.52 18.78-4.99 21.38-.47.48-2.62-30.18.48-9.74 3.56 5.22-19.48 9.01-7.37 28.13-4.3-1.2-6.48z" style="fill:#52a131"/><path d="m220.52 743.17-35.5 25.54-5.21 30.2 30.29 4.66 35.5-25.54 5.21-30.2z" style="fill:#6abc3e"/><path d="m99.14 768.92-42.18 11.55-15.42 26.48 26.76 14.93 42.18-11.55 15.42-26.48z" class="cls-138"/><path d="m190.82 871.99-29.56-2.56-16.64 20.11 12.93 22.67 29.57 2.56 16.63-20.11zm35.31 97.51-39.4-3.41-21.55 19.68 17.85 23.1 39.39 3.41 21.55-19.68z" style="fill:#408d2e"/><path d="m190.82 871.99-15.58-1.34 11.88 44.12 16.63-20.11z" style="fill:#357026"/><path d="m165.18 985.77 17.85 23.1 39.39 3.41z" style="fill:#3b842c"/><path d="m98.86 748.07 18.49 24.72 23.11 2.01 4.62-22.73-18.49-24.73-23.11-2zm56.61 264.87 18.48 24.72 23.11 2.01 4.62-22.73-18.49-24.73-23.1-2z" class="cls-132"/><path d="m155.47 1012.94 18.48 24.72 23.11 2.01-36.97-49.46z" class="cls-123"/><path d="m86.79 978.65 27.6 13.83 24.54-14.52-3.07-28.34-27.6-13.83-24.54 14.51z" class="cls-132"/><path d="m86.79 978.65 27.6 13.83 24.54-14.52-55.21-27.66z" class="cls-123"/><path d="M88.34 943.28c-3.83 2.13-13.05 4.86-16.8 1.85-.04-.2-.08-.4-.1-.6-.72-5.15 2.64-10.9 4.42-14.05 4.87-8.61 11.98-17.36 15.41-26.51 4.11-10.94 15.76-49.81 20.97-49.49.28-1.41 3.71.12 3.73 1.35 0 .06.09.32.14.39 2.32 2.74 2.17 12.2 2.27 14.25 0 .17.01.29.02.35 4.36 21.37-10.35 61.52-30.06 72.46" class="cls-44"/><path d="M88.34 943.28c-3.83 2.13-13.05 4.86-16.8 1.85-.04-.2-.08-.4-.1-.6.53-4.32 3.09-8.62 4.58-11.2 5.05-8.72 12.42-17.57 15.98-26.84 3.76-9.81 13.65-41.77 19.63-48.75 0-.01.01-.03.03-.04.76-.88 1.46-1.35 2.07-1.31.16-.8 1.36-.67 2.38-.17 2.32 2.74 2.17 12.2 2.27 14.25 0 .17.01.29.02.35 4.36 21.37-10.35 61.52-30.06 72.46" style="fill:#84cf49"/><path d="M118.38 870.47c-1.45-3.44-1.01-6.31-4.71-1.89-1.79 2.13-6.01 2.71-6.35 1.51-1.08-3.61 1.59-9.48 3.92-12.35 0-.01.01-.03.03-.04.84-1.04 4.55-1.74 4.53-1.67.06.06.13.12.18.19 2.46 2.74 2.3 12.2 2.4 14.25" style="fill:#60b236"/><path d="M249.56 922.58c-.41.53-.86.96-.96.96-.96-.03-7.9 2.76-10.44 2.99-39.03 3.43-70.45-58.75-54.62-91.71 1.07-2.21 3.72-4.86 4.66-7.46 1.34-.19 1.94 1.78 2.05 1.87 2.13.98 4.05 2.11 6.28 2.68.5.13 1.01.23 1.55.3-.07.42.36.35.37.37 8.2 9.1 10.77 37.38 18.27 50.52 7.58 13.26 26.79 22.45 33.18 37.46.66.35.2 1.29-.34 2.02" style="fill:#76c53f"/><path d="M249.56 922.58c-.41.53-.86.96-.96.96-.96-.03-7.9 2.76-10.44 2.99-39.03 3.43-70.45-58.75-54.62-91.71 1.07-2.21 3.72-4.86 4.66-7.46 1.34-.19 1.94 1.78 2.05 1.87 2.13.98 4.05 2.11 6.28 2.68-21.05-4.56-7.57 46.12-.48 58.53 8.2 14.36 21.54 38.4 53.51 32.14" class="cls-44"/><path d="M114.44 851.81c10.32-.41 2.15 19.35 14.91 14.35-3.89 7.52-12.78.52-13.98-5.41.26 2.69-2.18 7.95-6.15 7.83-4.15-6.46 2.73-10.5-4.85-7.08-1.64-.58-3.47-2.17-2.8-4.1 6.65 4.58 6.56-5.99 12.86-5.59Z" style="fill:#408c28"/><path d="M205.72 831.04c-4.22 3.45-9.8 2.14-14.54-.75-3.68-5.29-8.38 15.27-17.52 6.52 11.28 1.5 6.82-11.15 11.56-14.73 9.18-7.7 13.41 16.95 22.18 2.98.69 2.13-.52 4.24-1.68 5.96Z" style="fill:#45952c"/><path d="m202.18 846.11-.9 2.71a1.37 1.37 0 0 1-2.13.65l-2.25-1.76c-.22-.17-.38-.41-.47-.68l-2.22-7.33c-.08-.27-.08-.56.01-.82l.9-2.71a1.37 1.37 0 0 1 2.13-.65l2.25 1.76c.22.17.38.41.47.68l2.22 7.33c.08.27.08.56-.01.82" style="fill:#cdf2a6"/><path d="M1386.67 1081.3V916.36" style="fill:none;stroke-miterlimit:10;stroke:#a2b15c;stroke-width:4px"/><path d="m1382.99 967.26-20.39-13.32-23.83-3.86 13.46 23.07c.11.18.22.36.35.53l11.89 12.86h20.02l-17.43-18.07 17.78 15.92zm5.1 41.84 15.75-10.29 18.41-2.98-10.4 17.82c-.08.14-.17.28-.27.41l-9.19 9.94h-15.47l13.47-13.96-13.74 12.3 1.43-13.24Z" class="cls-138"/><path d="m1394.45 801.41-6.05-.52c-.64-.06-1.29.04-1.89.28l-4.53 1.82c-.86.34-1.58.97-2.04 1.77l-1.26 2.18a4.13 4.13 0 0 0-.3 3.48l.87 2.37c.32.87.92 1.61 1.7 2.09l4.15 2.57c.55.34 1.17.55 1.82.6l6.05.52c.64.06 1.29-.04 1.89-.28l4.53-1.82c.86-.34 1.58-.97 2.04-1.77l1.26-2.18c.61-1.06.72-2.33.3-3.48l-.87-2.37c-.32-.87-.92-1.61-1.7-2.09l-4.15-2.57c-.55-.34-1.17-.55-1.82-.6" style="fill:url(#radial-gradient)"/><path d="m1399.76 801.61 1.48.95c.37.24.82.38 1.28.42.27.02.55.01.83-.04.73-.14 1.28-.54 1.48-1.07l.27-.72c.22-.6-.06-1.27-.73-1.7l-.81-.52c-.67-.43-1.61-.55-2.4-.31l-.94.29c-.69.21-1.16.67-1.25 1.22s.2 1.11.79 1.49Z" style="fill:url(#radial-gradient-2)"/><path d="m1405.14 807.15.54 1.56c.22.62.84 1.13 1.66 1.36.21.06.42.1.64.12.63.05 1.25-.06 1.75-.34l.92-.51c.77-.42 1.1-1.15.86-1.86l-.29-.85c-.25-.71-1.03-1.27-2-1.44l-1.16-.2c-.85-.15-1.72.03-2.31.47s-.82 1.07-.6 1.69Z" style="fill:url(#radial-gradient-3)"/><path d="m1410.47 814-.87-.7c-.64-.51-1.56-.76-2.46-.67-.91.09-1.65.51-1.99 1.12l-.85 1.53c-.34.61-.22 1.32.32 1.88.48.5 1.21.83 2.01.9.11 0 .21.01.32.01h1.25c1.05 0 1.98-.44 2.36-1.14l.46-.83c.39-.7.17-1.52-.56-2.1Z" style="fill:url(#radial-gradient-4)"/><path d="M1403.96 820.69c-.12-.67-.7-1.26-1.53-1.58-.84-.32-1.8-.31-2.58.02l-1.95.82c-.78.33-1.25.93-1.25 1.6s.46 1.31 1.23 1.71l1.05.54c.39.2.84.32 1.29.36.56.05 1.13-.03 1.62-.24l1.06-.45c.88-.37 1.37-1.11 1.22-1.87l-.17-.92Z" style="fill:url(#radial-gradient-5)"/><path d="m1392.5 822.68-2.3-.2c-.92-.08-1.8.18-2.34.7s-.67 1.21-.34 1.85l.45.87c.38.73 1.3 1.26 2.34 1.35l1.26.11c1.05.09 2.04-.27 2.54-.93l.6-.78c.44-.57.43-1.28-.02-1.89s-1.27-1.02-2.19-1.1Z" style="fill:url(#radial-gradient-6)"/><path d="m1381.76 819.72-1.78-1.14c-.71-.46-1.66-.63-2.54-.46s-1.55.65-1.78 1.29l-.32.87c-.27.73.08 1.53.88 2.06l.97.63c.45.29.99.46 1.55.51.45.04.91 0 1.34-.14l1.13-.35c.83-.26 1.39-.81 1.5-1.47s-.25-1.33-.96-1.79Z" style="fill:url(#radial-gradient-7)"/><path d="m1376.48 813.07-.57-1.65c-.23-.66-.89-1.2-1.77-1.45s-1.83-.16-2.54.24l-.98.54c-.81.45-1.17 1.22-.91 1.98l.31.9c.26.75 1.1 1.35 2.13 1.53l1.24.21c.11.02.21.03.32.04.8.07 1.58-.12 2.14-.54.63-.47.87-1.14.64-1.8Z" style="fill:url(#radial-gradient-8)"/><path d="M1371.81 806.72c.48.38 1.11.62 1.77.68q.345.03.69 0c.91-.09 1.65-.51 1.99-1.12l.85-1.53c.34-.61.22-1.32-.32-1.88-.54-.57-1.41-.91-2.33-.91h-1.25c-1.05 0-1.98.44-2.36 1.14l-.46.83c-.39.7-.17 1.52.56 2.1l.87.7Z" style="fill:url(#radial-gradient-9)"/><path d="M1377.99 799.61c.11.57.59 1.07 1.3 1.34.26.1.54.16.83.19.47.04.95-.03 1.37-.2l1.66-.7c.66-.28 1.06-.79 1.06-1.36s-.39-1.12-1.05-1.45l-.9-.46c-.75-.38-1.72-.43-2.47-.11l-.9.38c-.75.32-1.16.94-1.04 1.59z" style="fill:url(#radial-gradient-10)"/><path d="m1390.67 799.06 1.76.15c.7.06 1.37-.14 1.79-.54s.51-.93.26-1.42l-.35-.67c-.29-.56-.99-.96-1.79-1.03l-.96-.08c-.8-.07-1.56.21-1.94.71l-.46.6c-.33.44-.33.98.01 1.44s.97.78 1.67.84Z" style="fill:url(#radial-gradient-11)"/><path d="m1387.29 791.16-1.67-5.62c-.07-.22-.23-.42-.48-.58l-2.71-1.7c-.7-.44-1.76-.33-2.17.22l-1.57 2.14c-.14.19-.18.42-.12.64l1.67 5.62c.07.22.23.42.48.58l2.71 1.7c.7.44 1.76.33 2.17-.22l1.57-2.14c.14-.19.18-.42.12-.64" style="fill:url(#radial-gradient-12)"/><path d="m1403.05 794.71 2.53-3.86c.1-.15.12-.33.06-.49l-.67-1.87c-.17-.48-.93-.75-1.55-.56l-2.39.77c-.22.07-.39.19-.49.34l-2.53 3.86c-.1.15-.12.33-.06.49l.67 1.87c.17.48.93.75 1.55.56l2.39-.77c.22-.07.39-.19.49-.34" style="fill:url(#radial-gradient-13)"/><path d="m1415.7 804.64 6.07-2.33c.24-.09.42-.25.52-.45l1.09-2.18c.28-.56-.2-1.25-.99-1.41l-3.05-.6c-.28-.05-.55-.03-.79.06l-6.07 2.33c-.24.09-.42.25-.52.45l-1.09 2.18c-.28.56.2 1.25.99 1.41l3.05.6c.28.05.55.03.79-.06" style="fill:url(#radial-gradient-14)"/><path d="m1416.67 815.04 8.07.96c.32.04.63 0 .9-.11l2.98-1.18c.77-.31.89-1.05.24-1.53l-2.51-1.84c-.23-.17-.52-.28-.84-.31l-8.07-.96c-.32-.04-.63 0-.9.11l-2.98 1.18c-.77.31-.89 1.05-.24 1.53l2.51 1.84c.23.17.52.28.84.31" style="fill:url(#radial-gradient-15)"/><path d="m1407.48 823.54 5.95 4.17c.23.16.53.27.85.3l3.51.37c.91.1 1.64-.42 1.5-1.06l-.54-2.47c-.05-.22-.2-.43-.44-.6l-5.95-4.17c-.23-.16-.53-.27-.85-.3l-3.51-.37c-.91-.1-1.64.42-1.5 1.06l.54 2.47c.05.22.2.43.44.6" style="fill:url(#radial-gradient-16)"/><path d="m1396.09 831.81 3.01 5.03c.12.2.33.35.61.44l3.05.97c.79.25 1.79-.12 2.04-.75l.99-2.46c.09-.22.07-.45-.04-.65l-3.01-5.03c-.12-.2-.33-.35-.61-.44l-3.05-.97c-.79-.25-1.79.12-2.04.75l-.99 2.46c-.09.22-.07.45.04.65" style="fill:url(#radial-gradient-17)"/><path d="m1378.75 827.64-3.32 5.03c-.13.2-.16.42-.08.64l.87 2.43c.22.63 1.21.98 2.02.72l3.13-1c.28-.09.51-.25.64-.44l3.32-5.03c.13-.2.16-.42.08-.64l-.87-2.43c-.22-.63-1.21-.98-2.02-.72l-3.13 1c-.28.09-.51.25-.64.44" style="fill:url(#radial-gradient-18)"/><path d="m1366.94 817.92-6.51 3.66c-.26.14-.44.34-.52.56l-.91 2.42c-.24.62.41 1.2 1.32 1.19l3.52-.08c.32 0 .63-.09.89-.23l6.51-3.66c.26-.14.44-.34.52-.56l.91-2.42c.24-.62-.41-1.2-1.32-1.19l-3.52.08c-.32 0-.63.09-.89.23" style="fill:url(#radial-gradient-19)"/><path d="m1362.92 805.92-8.07-.96c-.32-.04-.63 0-.9.11l-2.98 1.18c-.77.31-.89 1.05-.24 1.53l2.51 1.84c.23.17.52.28.84.31l8.07.96c.32.04.63 0 .9-.11l2.98-1.18c.77-.31.89-1.05.24-1.53l-2.51-1.84c-.23-.17-.52-.28-.84-.31" style="fill:url(#radial-gradient-20)"/><path d="m1371.5 795.63-5.27-4.17c-.21-.16-.47-.27-.74-.31l-3.03-.4c-.78-.1-1.4.4-1.25 1.03l.56 2.44c.05.22.19.43.4.59l5.27 4.17c.21.16.47.27.74.31l3.03.4c.78.1 1.4-.4 1.25-1.03l-.56-2.44a1.05 1.05 0 0 0-.4-.59" style="fill:url(#radial-gradient-21)"/><path d="m1387.31 791.27-1.63-5.39c-.06-.21-.23-.41-.47-.55l-2.69-1.61c-.7-.42-1.76-.3-2.17.23l-1.59 2.06c-.14.19-.19.4-.12.61l1.63 5.39c.06.21.23.41.47.55l2.69 1.61c.7.42 1.76.3 2.17-.23l1.59-2.06c.14-.19.19-.4.12-.61" style="fill:url(#radial-gradient-22)"/><path d="m1399.39 784.9.88-7.02c.03-.28-.07-.56-.28-.8l-2.42-2.68c-.63-.69-1.97-.83-2.76-.29l-3.03 2.1c-.27.19-.44.44-.48.72l-.88 7.02c-.03.28.07.56.28.8l2.42 2.68c.63.69 1.97.83 2.76.29l3.03-2.1c.27-.19.44-.44.48-.72" style="fill:url(#radial-gradient-23)"/><path d="m1418.39 793.57 5.84-4.12c.23-.16.36-.37.38-.6l.16-2.53c.04-.65-.87-1.21-1.85-1.14l-3.82.28c-.34.03-.66.13-.89.29l-5.84 4.12c-.23.16-.36.37-.38.6l-.16 2.53c-.04.65.87 1.21 1.85 1.14l3.82-.28c.34-.03.66-.13.89-.29" style="fill:url(#radial-gradient-24)"/><path d="m1428.68 808.65 8.01-1.56c.31-.06.6-.22.8-.45l2.29-2.56c.59-.66.38-1.66-.44-2.05l-3.17-1.49c-.29-.13-.61-.17-.93-.11l-8.01 1.56c-.31.06-.6.22-.8.45l-2.29 2.56c-.59.66-.38 1.66.44 2.05l3.17 1.49c.29.13.61.17.93.11" style="fill:url(#radial-gradient-25)"/><path d="m1426.41 825.15 10.21 3.48c.4.14.85.18 1.27.12l4.65-.69c1.2-.18 1.78-1.1 1.18-1.89l-2.31-3.06c-.21-.28-.54-.5-.94-.64l-10.21-3.48c-.4-.14-.85-.18-1.27-.12l-4.65.69c-1.2.18-1.78 1.1-1.18 1.89l2.31 3.06c.21.28.54.5.94.64" style="fill:url(#radial-gradient-26)"/><path d="m1409.22 836.02 5.71 6.9c.22.27.57.49.97.61l4.51 1.39c1.17.36 2.43-.12 2.59-.97l.62-3.31c.06-.3-.04-.61-.26-.88l-5.71-6.9c-.22-.27-.57-.49-.97-.61l-4.51-1.39c-1.17-.36-2.43.12-2.59.97l-.62 3.31c-.06.3.04.61.26.88" style="fill:url(#radial-gradient-27)"/><path d="m1436.88 853.74 5.71 6.9c.22.27.57.49.97.61l4.51 1.39c1.17.36 2.43-.12 2.59-.97l.62-3.31c.06-.3-.04-.61-.26-.88l-5.71-6.9c-.22-.27-.57-.49-.97-.61l-4.51-1.39c-1.17-.36-2.43.12-2.59.97l-.62 3.31c-.06.3.04.61.26.88" style="fill:url(#radial-gradient-28)"/><path d="m1385.54 837.31-.97 7.68c-.04.3.07.61.31.87l2.65 2.93c.68.76 2.16.91 3.02.32l3.31-2.3c.3-.21.48-.48.52-.79l.97-7.68c.04-.3-.07-.61-.31-.87l-2.65-2.93c-.68-.76-2.16-.91-3.02-.32l-3.31 2.3c-.3.21-.48.48-.52.79" style="fill:url(#radial-gradient-29)"/><path d="m1364.4 828.54-7.28 5.53c-.29.22-.45.5-.47.8l-.22 3.36c-.06.87 1.06 1.6 2.28 1.49l4.74-.41c.43-.04.82-.18 1.1-.39l7.28-5.53c.29-.22.45-.5.47-.8l.22-3.36c.06-.87-1.06-1.6-2.28-1.49l-4.74.41c-.43.04-.82.18-1.1.39" style="fill:url(#radial-gradient-30)"/><path d="m1353.89 813.05-10.81 1.26c-.42.05-.8.2-1.07.42l-3.01 2.5c-.78.65-.44 1.67.68 2.09l4.36 1.64c.39.15.84.2 1.26.15l10.81-1.26c.42-.05.8-.2 1.07-.42l3.01-2.5c.78-.65.44-1.67-.68-2.09l-4.36-1.64c-.39-.15-.84-.2-1.26-.15" style="fill:url(#radial-gradient-31)"/><path d="m1319.8 831.29-7.21 2.95c-.28.12-.55.38-.75.74l-2.22 4.04c-.57 1.04-.45 2.54.24 3.07l2.7 2.03c.24.18.53.22.81.1l7.21-2.95c.28-.12.55-.38.75-.74l2.22-4.04c.57-1.04.45-2.54-.24-3.07l-2.7-2.03a.79.79 0 0 0-.81-.1" style="fill:url(#radial-gradient-32)"/><path d="m1443.92 833.04 3.16 3.73c.12.15.33.25.58.3l2.79.53c.72.14 1.57-.23 1.74-.76l.64-2.02c.06-.18.02-.36-.1-.51l-3.16-3.73c-.12-.15-.33-.25-.58-.3l-2.79-.53c-.72-.14-1.57.23-1.74.76l-.64 2.02c-.06.18-.02.36.1.51" style="fill:url(#radial-gradient-33)"/><path d="m1358.01 796.77-10.21-3.48c-.4-.14-.85-.18-1.27-.12l-4.65.69c-1.2.18-1.78 1.1-1.18 1.89l2.31 3.06c.21.28.54.5.94.64l10.21 3.48c.4.14.85.18 1.27.12l4.65-.69c1.2-.18 1.78-1.1 1.18-1.89l-2.31-3.06c-.21-.28-.54-.5-.94-.64" style="fill:url(#radial-gradient-34)"/><path d="m1375.15 787.23-4.14-5.22c-.16-.2-.41-.37-.71-.46l-3.29-1.04c-.85-.27-1.78.1-1.9.75l-.46 2.52c-.04.23.02.46.19.67l4.14 5.22c.16.2.41.37.71.46l3.29 1.04c.85.27 1.78-.1 1.9-.75l.46-2.52a.82.82 0 0 0-.19-.67" style="fill:url(#radial-gradient-35)"/><path d="m1336.57 792.07-3.91-.86c-.15-.03-.32 0-.46.12l-1.63 1.23c-.42.32-.57 1.07-.31 1.54l1.03 1.81c.09.16.23.27.38.3l3.91.86c.15.03.32 0 .46-.12l1.63-1.23c.42-.32.57-1.07.31-1.54l-1.03-1.81a.6.6 0 0 0-.38-.3" style="fill:url(#radial-gradient-36)"/><path d="m1322.03 808.92-3.13-.7c-.12-.03-.26.02-.38.14l-1.37 1.28c-.35.33-.51 1.08-.31 1.54l.76 1.76c.07.16.17.26.3.29l3.13.7c.12.03.26-.02.38-.14l1.37-1.28c.35-.33.51-1.08.31-1.54l-.76-1.76c-.07-.16-.17-.26-.3-.29" style="fill:url(#radial-gradient-37)"/><path d="m1364.7 776.05-1.69-1.94c-.07-.08-.18-.11-.31-.09l-1.49.18c-.39.05-.84.46-.93.85l-.34 1.5c-.03.14-.01.25.05.33l1.69 1.94c.07.08.18.11.31.09l1.49-.18c.39-.05.84-.46.93-.85l.34-1.5c.03-.14.01-.25-.05-.33" style="fill:url(#radial-gradient-38)"/><path d="m1412.39 785.16 1.34-3.81c.05-.15-.04-.34-.26-.54l-2.42-2.22c-.63-.57-2.05-1.03-2.91-.93l-3.33.38c-.3.03-.49.13-.55.28l-1.34 3.81c-.05.15.04.34.26.54l2.42 2.22c.63.57 2.05 1.03 2.91.93l3.33-.38c.3-.03.49-.13.55-.28" style="fill:url(#radial-gradient-39)"/><path d="m1428.95 797 3.92-1.04c.15-.04.25-.12.28-.22l.28-1.14c.07-.29-.45-.68-1.06-.79l-2.39-.43c-.22-.04-.42-.04-.57 0l-3.92 1.04c-.15.04-.25.12-.28.22l-.28 1.14c-.07.29.45.68 1.06.79l2.39.43c.22.04.42.04.57 0" style="fill:url(#radial-gradient-40)"/><path d="m1368.27 777.31 4.08 2.82c.16.11.34.15.51.12l1.88-.37c.49-.1.73-.76.5-1.35l-.9-2.29c-.08-.21-.21-.38-.37-.49l-4.08-2.82a.7.7 0 0 0-.51-.12l-1.88.37c-.49.1-.73.76-.5 1.35l.9 2.29c.08.21.21.38.37.49" style="fill:url(#radial-gradient-41)"/><path d="m1435.73 816.16 6.73 2.63c.26.1.56.11.84.03l3.12-.95c.81-.24 1.22-1.16.84-1.86l-1.46-2.74c-.13-.25-.35-.44-.61-.54l-6.73-2.63c-.26-.1-.56-.11-.84-.03l-3.12.95c-.81.24-1.22 1.16-.84 1.86l1.46 2.74c.13.25.35.44.61.54" style="fill:url(#radial-gradient-42)"/><path d="m1426.08 838.58 13.11 7.67c.51.3 1.12.48 1.72.51l6.61.36c1.71.09 2.77-1.02 2.16-2.28l-2.33-4.87c-.21-.44-.6-.84-1.12-1.14l-13.11-7.67c-.51-.3-1.12-.48-1.72-.51l-6.61-.36c-1.71-.09-2.77 1.02-2.16 2.28l2.33 4.87c.21.44.6.84 1.12 1.14" style="fill:url(#radial-gradient-43)"/><path d="m1422.84 854.83 6.55 7.88c.26.31.62.51 1.02.58l4.45.76c1.15.2 2.25-.76 2.25-1.95v-4.61c0-.42-.15-.81-.41-1.12l-6.55-7.88c-.26-.31-.62-.51-1.02-.58l-4.45-.76c-1.15-.2-2.25.76-2.25 1.95v4.61c0 .42.15.81.41 1.12" style="fill:url(#radial-gradient-44)"/><path d="m1436.66 872.74 3.29 5.86c.13.23.35.35.62.34l3.05-.11c.79-.03 1.74-1.07 1.95-2.13l.81-4.1c.07-.37.04-.7-.09-.93l-3.29-5.86a.65.65 0 0 0-.62-.34l-3.05.11c-.79.03-1.74 1.07-1.95 2.13l-.81 4.1c-.07.37-.04.7.09.93" style="fill:url(#radial-gradient-45)"/><path d="m1398.3 848.26 6.59 12.33c.26.48.72.92 1.3 1.24l6.47 3.53c1.67.91 3.76.58 4.27-.68l1.98-4.88c.18-.44.13-.94-.12-1.43l-6.59-12.33c-.26-.48-.72-.92-1.3-1.24l-6.47-3.53c-1.67-.91-3.76-.58-4.27.68l-1.98 4.88c-.18.44-.13.94.12 1.43" style="fill:url(#radial-gradient-46)"/><path d="m1365.74 843.13-3.85 11.41c-.15.45-.08.95.2 1.43l3.13 5.29c.81 1.37 3.01 2.06 4.5 1.42l5.76-2.48c.52-.22.88-.59 1.04-1.04l3.85-11.41c.15-.45.08-.95-.2-1.43l-3.13-5.29c-.81-1.37-3.01-2.06-4.5-1.42l-5.76 2.48c-.52.22-.88.59-1.04 1.04" style="fill:url(#radial-gradient-47)"/><path d="m1345.94 863.35-3.78 11.06c-.15.43-.03.94.34 1.43l4.11 5.48c1.06 1.42 3.73 2.26 5.45 1.73l6.68-2.06c.6-.19 1.01-.52 1.16-.96l3.78-11.06c.15-.43.03-.94-.34-1.43l-4.11-5.48c-1.06-1.42-3.73-2.26-5.45-1.73l-6.68 2.06c-.6.19-1.01.52-1.16.96" style="fill:url(#radial-gradient-48)"/><path d="m1365.73 876.5-1.17 11.49c-.05.45.19.91.66 1.3l5.24 4.37c1.35 1.13 4.15 1.35 5.7.46l6.04-3.46c.54-.31.87-.73.91-1.18l1.17-11.49c.05-.45-.19-.91-.66-1.3l-5.24-4.37c-1.35-1.13-4.15-1.35-5.7-.46l-6.04 3.46c-.54.31-.87.73-.91 1.18" style="fill:url(#radial-gradient-49)"/><path d="m1323.84 867.22-5.24 8.85c-.21.35-.23.78-.08 1.23l1.74 5.01c.45 1.29 2.19 2.28 3.57 2.02l5.31-1.02c.48-.09.85-.33 1.06-.68l5.24-8.85c.21-.35.23-.78.08-1.23l-1.74-5.01c-.45-1.29-2.19-2.28-3.57-2.02l-5.31 1.02c-.48.09-.85.33-1.06.68" style="fill:url(#radial-gradient-50)"/><path d="m1349.95 887.92-6.16 10.43c-.24.41-.3.9-.17 1.4l1.43 5.54c.37 1.43 2.12 2.42 3.57 2.01l5.63-1.56c.51-.14.92-.44 1.16-.85l6.16-10.43c.24-.41.3-.9.17-1.4l-1.43-5.54c-.37-1.43-2.12-2.42-3.57-2.01l-5.63 1.56c-.51.14-.92.44-1.16.85" style="fill:url(#radial-gradient-51)"/><path d="m1381.86 857.85-.13 10.9c0 .43.2.84.57 1.17l4.18 3.68c1.08.95 3.17.93 4.27-.04l4.27-3.75c.39-.34.6-.76.6-1.18l.13-10.9c0-.43-.2-.84-.57-1.17l-4.18-3.68c-1.08-.95-3.17-.93-4.27.04l-4.27 3.75c-.39.34-.6.76-.6 1.18" style="fill:url(#radial-gradient-52)"/><path d="m1382.94 894.97-.15 13.19c0 .52.24 1.02.69 1.42l5 4.45c1.29 1.15 3.79 1.13 5.11-.04l5.1-4.54c.46-.41.71-.91.72-1.43l.15-13.19c0-.52-.24-1.02-.69-1.42l-5-4.45c-1.29-1.15-3.79-1.13-5.11.04l-5.1 4.54c-.46.41-.71.91-.72 1.43" style="fill:url(#radial-gradient-53)"/><path d="m1396.56 874.15 1.63 11.78c.06.46.37.87.87 1.16l5.52 3.22c1.43.83 3.89.44 5.03-.8l4.41-4.81c.4-.43.58-.92.52-1.38l-1.63-11.78c-.06-.46-.37-.87-.87-1.16l-5.52-3.22c-1.43-.83-3.89-.44-5.03.8l-4.41 4.81c-.4.43-.58.92-.52 1.38" style="fill:url(#radial-gradient-54)"/><path d="m1405.52 896.26 1.07 8.08c.04.32.33.59.81.76l5.34 1.97c1.38.51 3.84.12 5.03-.79l4.61-3.53c.42-.32.62-.66.58-.98l-1.07-8.08c-.04-.32-.33-.59-.81-.76l-5.34-1.97c-1.38-.51-3.84-.12-5.03.79l-4.61 3.53c-.42.32-.62.66-.58.98" style="fill:url(#radial-gradient-55)"/><path d="m1362.76 901.03-1.83 7.94c-.07.31.1.66.49 1l4.3 3.72c1.11.96 3.55 1.46 4.98 1.03l5.55-1.69c.5-.15.81-.41.88-.72l1.83-7.94c.07-.31-.1-.66-.49-1l-4.3-3.72c-1.11-.96-3.55-1.46-4.98-1.03l-5.55 1.69c-.5.15-.81.41-.88.72" style="fill:url(#radial-gradient-56)"/><path d="m1333.54 884.88-3.61 7c-.14.27-.14.61.02.96l1.68 3.81c.43.98 1.87 1.69 2.94 1.44l4.14-.96c.37-.09.65-.28.79-.56l3.61-7c.14-.27.14-.61-.02-.96l-1.68-3.81c-.43-.98-1.87-1.69-2.94-1.44l-4.14.96c-.37.09-.65.28-.79.56" style="fill:url(#radial-gradient-57)"/><path d="m1417.43 877.98 5.25 11.4c.21.45.63.77 1.2.93l6.32 1.69c1.63.44 3.87-.65 4.58-2.22l2.74-6.08c.25-.55.27-1.09.06-1.54l-5.25-11.4c-.21-.45-.63-.77-1.2-.93l-6.32-1.69c-1.63-.44-3.87.65-4.58 2.22l-2.74 6.08c-.25.55-.27 1.09-.06 1.54" style="fill:url(#radial-gradient-58)"/><path d="m1343.21 826.02-11.6 5.59c-.45.22-.76.56-.88.98l-1.25 4.57c-.32 1.18 1.02 2.5 2.73 2.7l6.65.76c.6.07 1.17-.01 1.63-.23l11.6-5.59c.45-.22.76-.56.88-.98l1.25-4.57c.32-1.18-1.02-2.5-2.73-2.7l-6.65-.76c-.6-.07-1.17.01-1.63.23" style="fill:url(#radial-gradient-59)"/><path d="m1324.95 815.82-10.21 2.1c-.4.08-.71.29-.88.59l-1.85 3.34c-.48.86.33 2.16 1.65 2.65l5.11 1.9c.46.17.93.22 1.33.14l10.21-2.1c.4-.08.71-.29.88-.59l1.85-3.34c.48-.86-.33-2.16-1.65-2.65l-5.11-1.9c-.46-.17-.93-.22-1.33-.14" style="fill:url(#radial-gradient-60)"/><path d="m1343.21 846.15-8.63 9.54c-.34.37-.5.81-.44 1.23l.57 4.7c.15 1.21 1.88 1.93 3.55 1.47l6.45-1.8c.58-.16 1.08-.45 1.42-.83l8.63-9.54c.34-.37.5-.81.44-1.23l-.57-4.7c-.15-1.21-1.88-1.93-3.55-1.47l-6.45 1.8c-.58.16-1.08.45-1.42.83" style="fill:url(#radial-gradient-61)"/><path d="m1320.01 848.17-8.58 9.5c-.34.37-.49.81-.44 1.23l.56 4.68c.15 1.21 1.87 1.93 3.53 1.46l6.41-1.79c.58-.16 1.08-.45 1.41-.83l8.58-9.5c.34-.37.49-.81.44-1.23l-.56-4.68c-.15-1.21-1.87-1.93-3.53-1.46l-6.41 1.79c-.58.16-1.08.45-1.41.83" style="fill:url(#radial-gradient-62)"/><path d="m1339.44 800.23-12.27-.32c-.48-.01-.94.12-1.31.38l-4.09 2.85c-1.06.74-1.01 2.2.09 2.99l4.28 3.07c.39.28.86.43 1.34.45l12.27.32c.48.01.94-.12 1.31-.38l4.09-2.85c1.06-.74 1.01-2.2-.09-2.99l-4.28-3.07c-.39-.28-.86-.43-1.34-.45" style="fill:url(#radial-gradient-63)"/><path d="m1349.88 784.93-5.29-2.52a.84.84 0 0 0-.66-.03l-2.45.87c-.63.22-.95 1.08-.65 1.75l1.16 2.59c.1.23.27.41.48.51l5.29 2.52c.21.1.44.11.66.03l2.45-.87c.63-.22.95-1.08.65-1.75l-1.16-2.59a1 1 0 0 0-.48-.51" style="fill:url(#radial-gradient-64)"/><path d="m1362.52 785.42-3.48-5.56c-.14-.22-.37-.42-.66-.57l-3.26-1.68c-.84-.43-1.87-.33-2.09.22l-.88 2.11c-.08.19-.05.41.09.63l3.48 5.56c.14.22.37.42.66.57l3.26 1.68c.84.43 1.87.33 2.09-.22l.88-2.11c.08-.19.05-.41-.09-.63" style="fill:url(#radial-gradient-65)"/><path d="m1386.91 778.23.08-4.44c0-.17-.12-.34-.35-.48l-2.53-1.5c-.65-.39-1.92-.38-2.59.01l-2.59 1.53c-.23.14-.36.31-.37.48l-.08 4.44c0 .17.12.34.35.48l2.53 1.5c.65.39 1.92.38 2.59-.01l2.59-1.53c.23-.14.36-.31.37-.48" style="fill:url(#radial-gradient-66)"/><circle cx="521.48" cy="989.45" r="6.89" class="cls-134"/><circle cx="503.88" cy="1007.83" r="5.54" class="cls-134"/><circle cx="539.84" cy="992.78" r="7.92" class="cls-134"/><circle cx="547.99" cy="1015.13" r="7.21" class="cls-134"/><circle cx="553.42" cy="1032.7" r="6.21" class="cls-134"/><circle cx="525.35" cy="1041.45" r="5.9" class="cls-134"/><circle cx="543.8" cy="1066.74" r="5.9" class="cls-134"/><path d="m489.3 1085.17 11.41-17.43 19.96-48.15 15.21-21.86" class="cls-13"/><path d="m500.71 1067.74 19.01-9.5 35.48-26.61" class="cls-13"/><path d="m525.1 1043.03-5.38 15.21 21.54 7.29m-37.38-53.86 11.18 21.45m6.56-42.68-1.9 31.95m.95-2.8 26.41-4.76" class="cls-13"/><path d="M890.29 893.64 878 877.96l4.91-24.61 9.65 21.57zm-6.71 37.04-45.35-14.83 26.14-3.18z" class="cls-50"/><path d="m881.02 935.17-35.91-6.74 20.06-6.75zm39.23-8.62-36.53 30.71 11.09-23.89zm33.28-32.83-21.16 5.33-24.54-.33 19.83-10.13zm-43.54 6.56 28.61 17.78 16.16 14.02-23.53-2.56z" class="cls-50"/><path d="M912.95 1217.7s-36.13-260.84-32.33-312.89c.38-5.24 7.13-23.11 32.32-2.2" class="cls-5"/><path d="M772.32 891.72 750.06 888l-32.04-.2 29.9-9.76zm43.74-20.87-13.66 23.04-15.22 14.94 5.57-25.74zm24.58 60.5-5.71 17.58-15.42 10.2 4.08-18.82zm-27.22 22.93L790 951.37l-24.17-.52 24.59-9.4z" class="cls-50"/><path d="M876.34 1171.9c-1.53-38.26-8.27-95.31-33.29-159.5-26.65-68.36-63.23-117.08-89.25-146.66" class="cls-5"/><path d="m764.77 878.02-19.6-16.65-16.42-24.96 27.73 12.39z" class="cls-50"/><path d="m638.92 990.33 10.93-14.49m-.95-5.35 1.19 5.23m9.15-2.38-8.91 2.62m.35 19.72-.47-19.84m-12.29 6.52c-3.23-8.14-7.32-17.11-12.54-26.54a229.5 229.5 0 0 0-20.89-31.34m30.99-104.28a228.8 228.8 0 0 0-59.84-29.79m5.62 150.14 26.73-10.34m13.31-22.1-13.07 21.75" class="cls-10"/><path d="M676.21 725.26c-6.53 0-13.18 1.55-18.98 5.32-6.52 4.25-11.36 11.97-14.79 19.8-3.9 8.92-4.57 19.31-4.52 29.24.05 10.75.37 21.49.37 32.25v265.42" style="fill:none;stroke-miterlimit:10;stroke-linecap:round;stroke:#013238;stroke-width:5px"/><path d="m649.66 798.34-10.22 6.48c-.79.5-1.36 1.3-1.57 2.22l-5.33 23.37c-.16.7-.1 1.43.16 2.1l3.11 7.88c.43 1.1 1.38 1.91 2.53 2.17l3.64.83c1.39.32 2.84-.23 3.68-1.39l8.2-11.36c.32-.44.53-.95.62-1.49l2.85-16.89c.11-.67.03-1.36-.23-1.98l-4.69-11.06a1.897 1.897 0 0 0-2.75-.86Z" style="fill:#003d67"/><path d="M649.66 798.34s-12.47 43.96-11.32 44.22l3.64.83c1.39.32 2.84-.23 3.68-1.39l8.2-11.36c.32-.44.53-.95.62-1.49l2.85-16.89c.11-.67.03-1.36-.23-1.98l-4.69-11.06a1.897 1.897 0 0 0-2.75-.86Z" style="fill:#00315b"/><path d="M663.11 908.96c-.19.92-.78 1.71-1.61 2.15l-19.56 10.35c-.29.16-.61.26-.94.32l-26.59 4.87c-1.85.34-3.22-1.7-2.21-3.28l10.7-16.72-9.99 13.23c-1.72 2.28-5.35 1.26-5.64-1.58-.02-.24-.02-.49.01-.73l3.5-26.03c.13-1 .75-1.88 1.64-2.36l20.01-10.63c.54-.28 1.14-.41 1.75-.36l30.26 2.6c2.32.2 3.95 2.38 3.48 4.66z" style="fill:#003555"/><path d="M678.69 734.9c-.26.03-.58.05-.84 0-.16-.03-1.2-.38-1.25-.42-3.61-2.57-1.51-8.12 2.72-5.85 3.77 2.03 2.35 5.98-.63 6.27" style="fill:#399131"/><path d="M636.06 813.47v-.42" style="fill:#2c913f"/><path d="m633.7 759-13.29-2.41c-.52-.09-1.06-.03-1.54.19l-9.58 4.34c-.65.3-1.15.85-1.39 1.52l-3.04 8.82c-.19.56-.19 1.18.01 1.74.32.88 1.1 1.53 2.03 1.68l8.18 1.34c.36.06.74.04 1.09-.06l17.39-4.68a2.61 2.61 0 0 0 1.86-1.91l1.8-7.62-.04-.04-3.49-2.9Zm11.13-21.23c.17-1 .14-2.03-.1-3.02l-2.36-9.88c-.46-1.44-2.41-1.66-3.19-.36l-7.21 12.18c-.13.22-.21.48-.24.74l-.37 4.12v.64c0 .33.1.66.28.94l3.92 6.14c.65 1.02 2.12 1.09 2.86.14l5.06-6.88c.45-.62.76-1.33.89-2.09l.45-2.66Z" style="fill:#00574c"/><path d="m636.59 743.12-7.08-8.18c-.26-.3-.58-.54-.93-.71l-10.98-5.3c-.39-.19-.82-.29-1.26-.29h-10.33c-1.99 0-3.38 1.95-2.74 3.83l4.31 12.62c.15.45.42.86.76 1.18l11.08 10.35c.4.37.89.62 1.43.73l14.54 2.81c1.93.37 3.67-1.25 3.42-3.2l-1.54-12.29c-.07-.57-.31-1.1-.68-1.53Z" style="fill:#00465b"/><path d="M648.6 868.21c-.27-.24-.37.53-.84-.84z" style="fill:#37a660"/><path d="m656.86 763.22-14.74 3.31c-1.24.28-2.39-.75-2.25-2.01l.26-2.34c.04-.4-.05-.81-.25-1.16a1.86 1.86 0 0 1-.02-1.88l4.08-7.1c.16-.28.39-.51.66-.67l9.11-5.4c.35-.21.75-.29 1.16-.25l6.99.81c.88.1 1.56.81 1.63 1.69l.44 5.33c.04.44-.09.89-.35 1.25l-5.64 7.71c-.26.36-.65.62-1.09.72Z" class="cls-142"/><path d="m578.4 942.39 18.94-9.47c1.16-.58 1.02-2.28-.22-2.66l-7.19-2.21c-.16-.05-.33-.07-.5-.06l-21.94 1.2c-.24.01-.48.09-.69.22l-18.25 11.48c-.24.15-.44.38-.55.64l-11.87 27.11c-.44 1.01.37 2.12 1.46 2l24.37-2.49c.3-.03.57-.15.8-.35l16.93-14.78c.12-.11.26-.19.41-.25l17.39-6.98c.35-.14.64-.42.78-.77l3.69-8.59c.5-1.15-.63-2.34-1.81-1.92l-21.75 7.86Z" style="fill:#005262"/><path d="m570.92 783.46.63.21-.21.63-.21-.21z" class="cls-57"/><path d="M587.17 807.2s-.08.04-.13.06c.05 0 .09-.03.13-.06" style="fill:#06534c"/><path d="M641.5 847.73v-.42c.03.13-.03.29 0 .42" style="fill:#004841"/><path d="m639.41 797.79 1.88-5.64" style="fill:#298f3a"/><path d="m544.64 855.75-3.37 21.95c-.13.84-.07 1.69.16 2.5l5.32 18.69a5.9 5.9 0 0 0 1.77 2.81l17.97 15.82c.47.41 1 .75 1.57.99l21.33 9.13c.66.28 1.36.44 2.07.47l6.1.25c1.8.08 3.54-.68 4.71-2.05l4.53-5.28c.74-.86 1.21-1.92 1.36-3.05l3.32-24.72c.14-1.02 0-2.06-.39-3.01l-7.73-18.92c-.36-.89-.94-1.67-1.67-2.29l-17.39-14.57c-.94-.79-2.1-1.26-3.32-1.36l-30.07-2.35a5.893 5.893 0 0 0-6.28 4.98Z" style="fill:#02524d"/><path d="m588.45 806.4 24.4.98c.53.02 1.05.17 1.51.43l16.8 9.56a3.3 3.3 0 0 1 1.56 2.01l5.14 18.84c.2.72.14 1.49-.15 2.17l-3.55 8.35c-.15.35-.36.68-.62.96l-2.93 3.15a3.32 3.32 0 0 1-2.79 1.04l-8.96-.97c-.43-.05-.85-.18-1.23-.38l-22.37-12.18c-.23-.13-.45-.28-.65-.46l-10.9-9.91c-.19-.18-.37-.38-.52-.59l-11.81-17.45c-.79-1.17-.11-2.77 1.29-3l15.11-2.5c.22-.04.45-.05.67-.04Z" class="cls-133"/><path d="M641.06 789.64c-.59.27-1.22-.3-1-.91.91-2.5 2.45-6.9 2.63-7.1.22-.24 7.19-5.77 8.26-6.62.09-.07.19-.12.31-.14 1.26-.24 11.55-2.76 16.77-3.8.86-.17-6.9 6.89-6.9 7.21 0 .37-11.05 5.24-12.09 5.69-.06.03-.1.05-.15.09l-5.82 4.61s-.09.07-.15.09l-1.86.86Z" class="cls-142"/><circle cx="679.67" cy="733.49" r="4.02" style="fill:#ff003d"/><path d="m674.73 727.6-1.33 10.17c-.05.39.47.58.68.25l2.86-4.52c.14-.21.44-.23.6-.04l3 3.65c.22.27.66.11.66-.24v-5.3c0-.26.26-.44.5-.35 1.49.57 5.81 2.22 5.74 2.26s-6.63-6.87-7.82-8.11a.365.365 0 0 0-.43-.08l-4.26 2.02c-.11.05-.19.16-.21.29Z" style="fill:#005057"/><path d="m675.18 719.97-1.92-9.23c-.14-.66-.6-1.21-1.23-1.45l-4.77-1.86c-1.12-.44-2.37.21-2.66 1.38l-1.31 5.28c-.09.36-.08.74.04 1.1l2.33 7.15c.2.62.69 1.1 1.31 1.29l3.1.95c.8.25 1.68-.04 2.18-.71l2.92-3.89Z" class="cls-143"/><path d="m680.89 727.63-5.24-2.16a2 2 0 0 1-1.08-2.63l1.37-3.23c.09-.2.21-.39.36-.56l3.72-4.12c.16-.18.35-.33.57-.44l4.4-2.26c.28-.14.58-.22.89-.22l2.72-.03c1.36-.02 2.33 1.3 1.93 2.59l-1.14 3.66c-.04.13-.09.25-.16.37l-2.9 5.24c-.16.29-.39.53-.67.71l-4.76 3.07Z" class="cls-57"/><path d="M678.51 990.6c-.34-.31-5.4-4.35-3.97-5.01 1.95 1.2 2.71 3.39 3.97 5.01m1.26 1.26c-.75-.65-.43-.19-1.25-1.25.46.42.83.84 1.25 1.25m0 0c.06.06 1.84.12 1.04 1.25-.45-.22-.82-1.06-1.04-1.25" style="fill:#005a6d"/><path d="M659.54 921.78c-.06 0-.12.02-.17.05l-15.59 7.85c-.08.04-.15.11-.2.18l-7.46 12.54c-.05.08-.07.17-.07.26l.29 16.05q0 .15.09.27l8.33 11.79c.09.13.24.2.4.2h7.89c.15 0 .3-.07.39-.2l6.71-9.15c.35-.48.75-.94 1.17-1.36l7.97-7.89c.28-.27.56-.53.87-.77l5.98-4.81c2.15-1.73 3.6-4.18 4.07-6.9l1.36-7.69a.54.54 0 0 0-.03-.28l-3.88-8.91a4.34 4.34 0 0 0-4.41-2.59l-13.69 1.35Z" style="fill:#004451"/><path d="m646.47 974.51-10.1-7.11c-1.42-1-3.2-1.36-4.9-1l-16.06 3.43a6.26 6.26 0 0 0-3.98 2.78l-7.58 12.07a6.28 6.28 0 0 0-.81 4.67l3.29 14.84a6.24 6.24 0 0 0 6.03 4.89l13.18.13c1.51.02 2.97-.52 4.12-1.5l11.85-10.12c.96-.82 1.65-1.91 1.98-3.13l2.39-8.95c.1-.37.16-.75.19-1.13l.69-8.88-.3-1.01Z" style="fill:#00405e"/><path d="m656.37 978.49-4.53-1.65s-.09-.04-.14-.06l-1.19-.59.42 24.45-.82-21.49a1.28 1.28 0 0 0-.31-.79c-.51-.59-1.42-.6-1.95-.02l-8.16 9.07c-.16.17-.26.38-.31.61l-3 15.07c-.04.22-.03.44.04.65l5.38 16.69c.1.31.32.57.6.73l2.84 1.58a7.04 7.04 0 0 0 7.87-.7l10.76-8.82c.93-.76 1.65-1.76 2.09-2.88l4.41-11.31c.12-.31.12-.66 0-.97l-4.45-10.75a1.2 1.2 0 0 0-.33-.46l-9.23-8.36Z" style="fill:#004070"/><path d="m700.88 966.71-18.82-7.51c-.8-.32-1.68-.35-2.5-.08l-16.32 5.3c-.62.2-1.18.56-1.61 1.05l-6.79 7.62a3.68 3.68 0 0 0-.2 4.65l12.84 17.11c.37.49.85.88 1.4 1.13l13.51 6.24c.73.34 1.55.43 2.33.25l20.93-4.58c.53-.12 1.03-.35 1.47-.69l11.92-9.24c1.84-1.42 1.91-4.17.15-5.69l-17.27-14.94c-.31-.27-.66-.48-1.04-.63Z" style="fill:#004867"/><path d="m656.37 978.49-4.53-1.65s-.09-.04-.14-.06l-1.19-.59 2.6 45.85 10.76-8.82c.93-.76 1.65-1.76 2.09-2.88l4.41-11.31c.12-.31.12-.66 0-.97l-4.45-10.75a1.2 1.2 0 0 0-.33-.46l-9.23-8.36Z" class="cls-18"/><path d="m668.74 837.42-30.17 19.01" class="cls-10"/><path d="m699.38 804.45-20.71 1.06c-.21.01-.41.07-.58.18l-23.33 14.33c-.15.09-.27.21-.37.35l-7.69 11.13c-.07.1-.12.2-.16.31l-6.07 18.38c-.35 1.06.78 2.01 1.76 1.47 1.39-.76 28.62-15.76 27.3-14.89l-30.16 19.7c-.83.54-.71 1.8.21 2.18l13.1 5.31c.11.05.24.08.36.09l9.44.8q.195.015.39-.03l24.36-5.74c.18-.04.36-.13.5-.25l27.66-22.88c.1-.08.19-.18.26-.3l13.63-21.81c.44-.71.07-1.64-.73-1.85l-28.79-7.51c-.12-.03-.25-.04-.37-.04Z" class="cls-133"/><path d="m580.19 787.68 1.11 4.43m-4.91 3.49 4.91-3.64" class="cls-10"/><path d="m573.64 789.99-7.98-2.39c-.24-.07-.5-.06-.74.04l-12.09 5.16c-.17.07-.31.18-.42.32l-5.16 6.54c-.41.52-.26 1.28.31 1.61l6.94 4c.19.11.42.16.64.14l16.99-1.58c.3-.03.58-.18.76-.42l5.24-6.87c.31-.41.29-.97-.04-1.36z" style="fill:#004653"/><path d="m575.58 779.09-7.66-5.78c-.18-.13-.39-.21-.62-.22l-7.87-.23c-.71-.02-1.24.63-1.09 1.32l1.2 5.27c.03.14.1.28.18.4l6.42 8.73c.15.21.37.35.63.41l5.75 1.34 3.89 1.08h.84l-.14-6.37c0-.08-.01-.17-.04-.25l-1.5-5.71Z" class="cls-57"/><path d="M583.03 765.57c-.13.09-.24.2-.32.34l-4.04 6.63c-.09.15-.14.32-.16.49l-.66 10.15c0 .12 0 .25.04.37l1.43 4.97c.24.85 1.35 1.06 1.89.36l4.43-5.69c.08-.1.14-.22.18-.34l2.94-9.51a1 1 0 0 0 .05-.29l.26-9.95c.02-.67-.72-1.07-1.28-.7l-4.75 3.17Z" class="cls-143"/><path d="M985.1 967.91c3.02-1.59 5.78-18.09 5.78-18.09l9.28-15.73s19.58-15.97 28.72-22.84c4.98-3.74 11.3-13.13 11.3-13.13l-25.68 47.32s-28.76 18.11-29.4 22.47m1.27 27.93-20.98-32.87-28.35-18.59 9.81 12.88 13.49 13.51 12.95 9.27zm1.27 83.8 6.49-22.08 20.08-8.93zm47.62-127.44.12.08-.13-.02zm5.24 3.52-4.31 2.15-21.26 5.07 20.32-10.68.13.02z" class="cls-41"/><path d="M985.1 898.12v200.6m14.63-93.88v96.15" class="cls-3"/><path d="m1068.78 993.43-22.56-19.34-10.03-16.22 4.31-2.15zm-7.1 27.22-19.37-19.85 25.85 42.15z" class="cls-41"/><path d="M1068.78 870.32v225.96" class="cls-3"/><path d="m1096.96 878.08-21.34-5.31 19.09 10.01c-1.49 2.38-3.42 4.53-5.69 6.39l-16.28-13.44s7.23 11.02 9.88 17.45c-4.06 1.91-8.69 3.06-13.63 3.24l-.24-19.91s-3.46 13.39-5.37 19.68c-4.17-.49-8.07-1.68-11.52-3.43 4.71-5.52 12.72-17.42 12.98-17.72-.37.21-12.97 9.98-19.51 13.26-3.29-2.96-5.75-6.58-7.05-10.59 7.67-1.27 23.39-5.69 23.39-5.69s-17.02-1.57-24.36-3.04c.4-4.18 2.01-8.08 4.55-11.44 6.58 4.02 19.58 10.39 19.58 10.39s-9.17-9.33-14.35-15.63c2.72-2.08 5.9-3.75 9.4-4.91l9.94 18.75 1.36-20.52c2.55 0 5.03.28 7.4.77-1.81 7.36-4.17 19.31-4.17 19.31s5.85-11 10.27-17.42c3.85 1.6 7.24 3.86 9.95 6.61-7.35 5.13-16.24 12.32-16.49 12.46l19.45-8.87c1.77 2.59 3.01 5.47 3.6 8.53-8.89.07-21.21 2.9-21.21 2.9l21.56.03c.02.36.03.72.03 1.09 0 2.45-.43 4.82-1.2 7.06Z" style="fill:url(#radial-gradient-67)"/><path d="m1004.62 899.52-15-4.79 13.06 7.16c-1.23 1.17-2.76 2.18-4.52 3l-10.81-8.79s4.46 6.67 5.94 10.42c-3.05.69-6.46.91-10.02.57l1.16-10.92s-3.38 7.02-5.18 10.3c-2.97-.64-5.7-1.63-8.06-2.89 3.76-2.6 10.31-8.41 10.52-8.56-.28.08-10 4.32-14.92 5.54-2.17-1.91-3.69-4.11-4.37-6.42 5.6-.02 17.21-1.06 17.21-1.06s-12.14-2.36-17.32-3.81c.57-2.25 1.99-4.24 4.04-5.86 4.46 2.78 13.39 7.41 13.39 7.41s-5.98-5.91-9.28-9.82c2.1-.9 4.5-1.53 7.09-1.86l5.9 11.14 2.35-11.11c1.84.23 3.6.59 5.27 1.07-1.8 3.87-4.29 10.2-4.29 10.2s4.94-5.5 8.55-8.63c2.66 1.22 4.95 2.75 6.71 4.49-5.63 2.16-12.5 5.31-12.7 5.37l14.58-3.14c1.1 1.58 1.8 3.26 2.02 4.99-6.4-.74-15.45-.28-15.45-.28l15.51 1.92c-.01.2-.02.4-.05.6-.16 1.34-.63 2.6-1.34 3.76Z" style="fill:url(#radial-gradient-68)"/><path d="m987.07 1011.12 10.19-3.83-10.15 1.72c.17-1.16.56-2.37 1.17-3.56l9.63.14s-5.28-1.71-7.69-3.11c1.36-1.68 3.11-3.26 5.19-4.61l4.05 6.42s-1.17-5.26-1.6-7.81c1.88-.93 3.79-1.56 5.61-1.89-.92 3.02-1.99 8.99-2.04 9.15.11-.17 3.57-6.63 5.72-9.4 2 .11 3.76.64 5.12 1.61-3.03 2.41-8.88 7.95-8.88 7.95s7.6-3.92 11.03-5.36c.66 1.47.74 3.15.32 4.91-3.61.41-10.44 1.72-10.44 1.72s5.78.65 9.24 1.35c-.75 1.39-1.78 2.76-3.05 4.05l-7.97-3.51 3.49 7.04c-1.09.66-2.21 1.22-3.32 1.68-.68-2.87-2.04-7.38-2.04-7.38s-.32 5.11-.94 8.35c-1.97.48-3.86.63-5.57.44 2.13-3.59 4.51-8.24 4.59-8.35l-6.57 7.96c-1.27-.38-2.37-1-3.23-1.84 3.79-2.34 8.5-6.47 8.5-6.47l-9.24 5.61c-.08-.11-.16-.23-.23-.35-.49-.8-.77-1.68-.89-2.61Z" style="fill:url(#radial-gradient-69)"/><path d="m366.4 785.58-.77-.46-37.81-10.03c-.4-.11-.82-.12-1.23-.03l-25.76 5.43c-.46.1-.88.32-1.22.64l-9.75 9.17.53-.03 33.02 4.08 9.73 1.22.61-.04 30.94-8.33c.8-.22 1.45-.82 1.72-1.6ZM224.77 674.69l.28-.72c.09-.22.21-.43.36-.62l11.44-13.92c.07-.09.13-.18.17-.29l.29-.74c.04-.1.07-.21.07-.32l2.27-36.65c.06-1.04-.61-1.99-1.61-2.28-1.01-.28-2.07.17-2.57 1.09l-14.16 26.56c-.14.26-.23.56-.25.85l-1.76 20.31c-.06.65.17 1.28.63 1.75l4.86 4.97Z" class="cls-135"/><path d="M279.29 950.73c-6.48-92.47-25.26-184.06-55.7-271.61-4.1-11.79-8.54-23.74-16.36-33.47s-19.72-17-32.17-16.2" class="cls-6"/><path d="M284.4 1106.34c15.15-56.21 14.75-104.79-6.51-159.23-11.33-29-26.25-62.24-25.81-93.66.47-33.24 15.17-49.44 41.66-67.5 18.47-12.59 33.19-20.94 34.38-44.6 1.56-31.1-21.11-47.56-32.22-73.19-8.8-20.29-11.5-38.02-11.5-61.31 0-23.47 8.96-38.53 13.14-60.35 9.39-49.04-36.96-92.04-85.38-78.89" class="cls-6"/><path d="M300.45 676.04c5.31-19.37 4.64-56.54 13.01-73.25 8.86-17.7 31.46-15.14 42.49-18.49" style="fill:none;stroke-miterlimit:10;stroke-linecap:round;stroke:#3d714b;stroke-width:3px"/><path d="M312.12 553.3c-7.39-2.91 17.43-14.9 12.45 6.5-1.11 4.75-11.35 10.27-2.37 14.87 3.63 1.85 7.81 2.04 11.32 1.24 4.32-.99 3.08-7.59-1.3-6.94-14.69 2.2-13.74 17.29-13.46 24.78m-21.15-83.66c10.35-7.72 37.98-21.75 48.03-9.11 8.89 11.19.42 21.75-11.24 20.98-2.94-.2-4.96-3.33-3.71-5.99s4.32-1.08 8.74-.17m26.72 176.12c21.61 4.13 8.44 19.24-2.09 32.84-7.21 9.31 5.62 21.24 14.11 13.09 3.64-3.5 2.89-8.02-7.26-11.71-14.63-5.32-33.69 3.25-42.77 13.3m-68.45-57.02c14.09 14.74-.41 27.18-10.09 24.02-6.48-2.11-4.85-12.02 1.97-12.02 13.06-.01-6.2 38.56-7.09 43.13m19.01-310.4c-4.33-11.73 9.11-14.08 15.77-6.17 3.01 3.57 2.41 12.86 2.06 20.4-.27 5.63 4.2 10.49 9.83 10.39 1.46-.03 2.89-.21 4.28-.56 4.08-1.01 2.56-7.18-1.56-6.33-15.04 3.1-23.35 17.71-20.88 35.5" style="fill:none;stroke-miterlimit:10;stroke-linecap:round;stroke:#3d714b"/><path d="m287.1 739 5.38 10.51.13.57-.22 29.47-.15.64-3.5 7.89c-.15.34-.47.6-.83.67l-1.63.31c-.35.07-.66-.07-.79-.36l-10.1-22.27a.7.7 0 0 1-.06-.33l.64-16.84c0-.17.07-.35.17-.5l7.34-11.33v-.74l3.98 2.47-.38-.16Zm-85.8-49.65c.16-.03.3-.07.42-.13l13.67-7.12c.07-.04.14-.08.19-.13l6.83-6.85c.22-.22.11-.48-.26-.64l-1.67-.71c-.25-.11-.59-.15-.92-.12l-31.88 3.49c-.31.03-.57.13-.71.27l-14.64 14.09c-1.14 1.1-.17 3.01 1.39 2.73l27.59-4.88Zm84.22-191.94-1.25-1.02a1 1 0 0 0-.21-.13l-7.73-3.72a1.1 1.1 0 0 0-.35-.1l-.85-.09c-.12-.01-.24 0-.36.02l-18.81 4.38c-.46.11-.79.5-.82.97l-.12 1.92c-.03.47.25.9.69 1.07l16.7 6.24c.09.03.19.06.29.06l.71.06c.1 0 .2 0 .3-.02l17.32-3.55-.83-1.08s-.04-.05-.07-.08l-4.61-4.94Zm.25 89.79-.13-.57-7.23-18-.31-.51-6.17-7.23-.73-.52-31.12-12.08-.55-.33-6.19.23c-1.77.07-2.57 2.24-1.28 3.45l34.5 32.17.85.46 18.42 4.23-.08-1.29Zm77.14 45.51-18.23 9.11s-.07.03-.11.05l-25.94 9.52c-.24.09-.51.09-.75 0l-11.41-4.42c-.76-.29-.92-1.29-.3-1.81l14.35-11.99c.09-.07.18-.13.29-.17l.69-.27c.1-.04.2-.06.31-.07l36.54-3.1c2.08-.18 4 1.15 4.56 3.16ZM310.6 486.33l3.87-23.97c.03-.16.01-.32-.03-.48l-2.3-7.68c-.12-.4-.47-.7-.89-.75l-1.95-.25c-.42-.05-.83.15-1.05.51l-16.72 27.79-.26.92-.25 18.28c0 .63.53 1.13 1.16 1.08l4.03-.38c.26-.02.5-.14.68-.34l13.71-14.74Zm-74.14 256.65-4.5-1.47 4.13 1.35c.24.08.5.07.74-.03l5.83-2.42-.07-.04-13.38-17.13c-.1-.13-.23-.23-.38-.3l-18.55-8.98q-.135-.06-.27-.09l-11.86-2.19c-.44-.08-.88.12-1.11.5l-.99 1.68c-.23.38-.19.87.09 1.22l4.95 6.06 12.57 16.32c.08.1.17.18.27.25l.74.47c.1.07.22.11.34.14l21.59 4.82.08.03.11-.03z" class="cls-135"/><path d="m218.89 497.4 1.2-19.46c.04-.72-.33-1.39-.96-1.74l-7.71-4.29c-.92-.51-2.09-.19-2.62.72l-4.44 7.62c-.36.62-.34 1.39.06 1.99l10.95 16.13c1.02 1.5 3.41.85 3.52-.96Z" class="cls-125"/><path d="m184.02 496.4-2.22-15.47c-.19-1.27.35-2.36 1.38-2.82l7.67-3.41 20.44-9.11c1.89-.84 4.2.66 4.97 2.59.29.74.36 1.55.08 2.3l-4.77 13.16-3.31 9.11-2.6 7.15c-.39 1.08-1.43 1.69-2.67 1.58l-15.21-1.43c-1.81-.17-3.5-1.8-3.76-3.64Zm-17.25 133.78-23.45-24.58c-.86-.9-1.01-2.23-.37-3.41l5.75-17.5c.92-1.73 3.19-2.64 5.05-2.03l17.63 8.1c1.28.42 2.09 1.47 2.09 2.72l.07 33.98c0 3.16-4.59 5.01-6.77 2.72" class="cls-125"/><path d="m166.45 625.1 15.64-35.32c.58-1.3 1.9-2.02 3.42-1.87l20.88-1.55c2.22.22 4.15 2.2 4.32 4.42l-.86 22.04c.12 1.53-.64 2.84-1.95 3.38l-35.66 14.83c-3.32 1.38-7.25-2.65-5.8-5.93Z" class="cls-125"/><path d="m171.74 631.52-23.8 8.29c-.87.3-1.81 0-2.42-.8l-10.05-9.26c-.88-1.16-.8-2.96.18-4.03l10.88-9.41c.68-.74 1.64-.96 2.48-.58l22.96 10.38c2.14.97 1.97 4.64-.24 5.41Z" class="cls-125"/><path d="M198.34 605.32c-.11-1.48-1.41-2.81-2.89-2.95-8.97.67-9.85 3.54-14.89 10.44-2.48 3.39-5.82 5.68-9.81 4.07-2.21-.9-3.31-2.75-5.87-2.41s-3.41 2.72-4.04 5.3c-.44 1.82.25 5.06-.85 6.59s-6.14 1.12-6.22 2.83c-.25 5.76 19.45 2.79 22.76 1.41 6.64-2.76 13.28-5.53 19.93-8.29.88-.36 1.38-1.24 1.3-2.26l.57-14.72Z" class="cls-37"/><path d="m375.62 550.52-7.3 12.07-12.06 19.93c-1.78 2.93-6.53 2.01-7.13-1.34-.01-.04-.01-.08-.02-.12l-2.27-15.73-3.06-21.28c-.2-1.36.44-2.69 1.64-3.43l14.7-9.04c1.75-1.08 4.14-.59 5.33 1.09l9.2 12.92.8 1.13c.82 1.16.88 2.63.17 3.8" class="cls-125"/><path d="m416.51 551.53-4.08 25.94c-.33 2.13-1.76 3.62-3.7 3.86l-14.37 1.75-38.32 4.68c-3.55.43-6.61-3.11-6.91-6.58-.11-1.33.18-2.66 1.02-3.74l14.47-18.82 10.03-13.03 7.87-10.23c1.19-1.55 3.2-2.02 5.2-1.23l24.4 9.71c2.91 1.15 4.87 4.6 4.39 7.69" class="cls-125"/><path d="m394.36 583.08-38.32 4.68c-3.55.43-6.61-3.11-6.91-6.58-.01-.04-.01-.08-.02-.12l-2.27-15.73c4.3-2.26 8.92-4.15 12.27-5.31 2.93-1.02 4.33-1.72 5.51-1.4 1.08.28 1.98 1.42 3.7 3.97.09.14.19.28.29.43 3.01 4.46 2.65 6.34 7.52 7.9 3.18 1.02 6.83-.5 9.94.75 3.05 1.23 7.67 6.59 8.29 11.41M190.68 474.7l20.44-9.11c1.89-.84 4.2.66 4.97 2.59.01.02.02.04.03.07l3.98 8.58a53 53 0 0 1-5.89 5.09c-1.45 1.07-2.1 1.71-2.81 1.72-.65.02-1.34-.48-2.74-1.64-.07-.06-.15-.13-.24-.2-2.44-2.04-2.57-3.17-5.54-3.24-1.94-.05-3.7 1.43-5.64 1.24-1.9-.19-5.39-2.47-6.57-5.11Z" class="cls-37"/><path d="m742.53 879.72 4.12 1.17 2.56 3.21-1.63-.44-.12-.05-1.08-.33-3.8-2.31-1.57-.97 1.53-.27Z" class="cls-18"/><path d="m747.57 883.65.26 1.57-.86-.29c-.78-.27-1.53-.57-2.29-.92l-.02-1.17c0-.13-.1-.33-.25-.32l-1.36.08-.73-.8s-.01-.08-.07-.1c.23-.2.12-.59.32-.74l3.8 2.31 1.08.33c.05.02.12.02.12.05" style="fill:#02121b"/><path d="m742.53 879.72-1.53.27 1.57.97c-.19.15-.09.55-.32.74-.15.13-.4.22-.61.21-.13 0-.25.09-.36.06l-.48-.12-.34-.63c-.15-.28-.07.15-.16.25-.03.03-.12 0-.17-.01-.07-.02-.33-.38-.15-.47.06-.03-.05-.14-.11-.12.02-.28-.12-.42-.18-.62l.17-1.03 1.01-.44 1.46.47.22.46Z" style="fill:#010a31"/><path d="m739.85 879.22-.17 1.03c-.17.08-.32.17-.5.31l.58.31h.1c.06-.02.17.09.11.12-.18.09.08.45.15.47.05.02.14.04.17.01.1-.09.01-.53.16-.25-.05.21-.14.53-.19.56a.36.36 0 0 1-.27.02l-.89-.32-.57.82c-.05.08-.1.18-.19.23-.03-.01-.06 0-.08 0-.03-.01-.04-.07-.03-.1l.08-.18.77-1.05.92.17-.91-.61c-.33.26-.51.69-.84.89l-1.05.31-.11.02c-.06.01-.11-.04-.11-.07l1.15-.33.72-.82-.78.29.11-1.21.18-.58c.1-.03.16-.17.22-.23l.36-.38.9.11v.46Zm-.4.15c0-.19-.27-.28-.41-.28-.16 0-.3.13-.38.29-.15.3-.35.66 0 .86s.81-.43.79-.87" style="fill:#163f75"/><path d="m742.32 881.8.29.81.44-.02 1.36-.08c.16 0 .25.19.25.32l.02 1.17v.98c0 .06 0 .12-.02.19l-.14.08a.84.84 0 0 1-.14-.5l.02-.93v-.96l-.94.12-.94.08c-.15.01-.23-.23-.3-.34l-.5-.77c-.21.42.26.23.23.64l-.07.9-.1.71c-.04-.07-.11-.08-.18-.05 0-.08-.03-.16-.01-.29l.04-.5.08-.69-.37-.08c-.07-.21-.08-.43-.06-.64.11.03.24-.06.36-.06.22 0 .47-.08.61-.21.06.02.06.06.07.1Z" class="cls-133"/><path d="M738.58 879.03c-.06.06-.12.19-.22.23l-.89-.94-2.04-1.56s.06-.12.09-.1l2.11 1.58.77.82-.55-1.13-1.49-2.24s0-.08.02-.09c.05-.03.08-.01.12.05l1.47 2.2.61 1.19Z" style="fill:#091722"/><path d="m744.52 885.26.14-.08.95 1.57c.03.06.08.11.03.16-.02.02-.09.06-.11.02l-1.01-1.66Z" style="fill:#013238"/><path d="m738.35 882.53-1.24.75s-.11-.11-.08-.13l1.2-.72s0 .09.03.1c.02 0 .05-.01.08 0Z" style="fill:#092428"/><path d="m741.78 884.22-.16 1.34s-.09.02-.14 0l.13-1.39c.07-.03.13-.02.18.05Z" style="fill:#082222"/><path d="M739.45 879.37c.02.44-.43 1.08-.79.87s-.14-.57 0-.86c.08-.16.22-.28.38-.29.14 0 .4.09.41.28" class="cls-125"/><path d="M744.39 883.82c-.09-.01-.21-.03-.27-.1l-.67-.74.95-.12v.96Z" style="fill:#02131b"/><circle cx="778.46" cy="942.68" r=".71" class="cls-125"/><circle cx="781.54" cy="942.68" r=".71" class="cls-125"/><circle cx="896.44" cy="930.44" r=".71" class="cls-125"/><circle cx="899.52" cy="930.44" r=".71" class="cls-125"/><circle cx="836.79" cy="929.49" r=".71" class="cls-125"/><circle cx="839.88" cy="929.49" r=".71" class="cls-125"/><ellipse cx="874.46" cy="952.09" class="cls-125" rx=".49" ry=".6" transform="rotate(-86.785 874.463 952.094)"/><ellipse cx="877.06" cy="952.24" class="cls-125" rx=".49" ry=".6" transform="rotate(-86.785 877.06 952.24)"/><path d="M961.32 777.23c.04.28.08.59.02.75-.28.72-2.03-.25-2.38-.49-.8-.56-1.8-.85-2.22-1.83-.14-.32-.33-.81-.11-1.15s.72-.29 1.09-.34c.85-.11 1.77-.12 2.55.29 1.04.55.94 1.28.99 2.34 0 .1.03.26.06.43Z" class="cls-35"/><path d="M962.78 778.95c-1.1-2.27-1.99-.75-1.94-.68 1.3 2.1 4.88 7.5 5.88 8.88 1.23 1.69.58-.42.51-.51-2.96-3.68-4.32-7.45-4.44-7.69Zm-8.8-5.02c-.09.64.29 1.07 1.57.64.69-.23 1.54-1.15 1.36-1.74-.7-2.22-2.75-.16-2.93 1.11Z" class="cls-35"/><path d="M957.96 777c-.04.55.36.98-.13 1.61-.43.56-1.96 1.14-2.71 1.01m2.11 2.42c.11-.75 1.37-1.82 1.79-2.41s-.22-1.3-.13-2.03m-4.4 1.13c.58-.34 2.27-1.06 2.54-1.35.32-.34-.6-1.4-.21-1.73" style="fill:none;stroke-miterlimit:10;stroke-linecap:round;stroke:#007da6"/><path d="M958.37 774.41c.29-2.89 2.41-15.91 3.95-18.81 1.82-3.43 6.6-1.9 5.83 2.08-.7 3.58-10.08 19.72-9.78 16.73Z" class="cls-36"/><path d="M969.64 762.73c2.54-2.17 6 .99 3.65 3.59-2.12 2.34-14.19 9.22-14.48 8.78-.44-.68 6.8-8.93 10.83-12.37Z" class="cls-36"/></g></g></svg>